<?xml version="1.0" encoding="UTF-8"?>
<svg version="1.1" xmlns="http://www.w3.org/2000/svg" width="500" height="500">
<path d="M0 0 C165 0 330 0 500 0 C500 165 500 330 500 500 C335 500 170 500 0 500 C0 335 0 170 0 0 Z " fill="#FEFEFE" transform="translate(0,0)"/>
<path d="M0 0 C0.66 0 1.32 0 2 0 C2.4021875 1.56234375 2.4021875 1.56234375 2.8125 3.15625 C8.39984491 23.94910255 19.42683195 42.63705364 32 60 C33.65568006 62.36821627 35.29653379 64.746574 36.9375 67.125 C38.29155575 69.08341003 39.64570385 71.04175621 41 73 C41.01401855 71.68563965 41.01401855 71.68563965 41.02832031 70.34472656 C41.07283459 67.03408646 41.13466293 63.72464401 41.20751953 60.41455078 C41.23541592 58.99311756 41.25678304 57.57153824 41.27099609 56.14990234 C41.39456131 44.4771079 42.54073572 33.06999836 50.22265625 23.6875 C55.57260799 18.60798538 62.02947432 15.89459507 69.36196899 15.85282898 C70.22808807 15.84567368 71.09420715 15.83851837 71.98657227 15.83114624 C72.92895752 15.82845734 73.87134277 15.82576843 74.84228516 15.82299805 C75.84117767 15.81642685 76.84007019 15.80985565 77.86923218 15.80308533 C81.17584308 15.7833718 84.48240856 15.77169288 87.7890625 15.76171875 C89.48591753 15.75560546 89.48591753 15.75560546 91.21705246 15.74936867 C97.2067115 15.72851442 103.19634768 15.7142109 109.18603516 15.70483398 C115.35958196 15.69378191 121.53276712 15.6593936 127.70618629 15.61966228 C132.46414846 15.59346106 137.22202499 15.58513892 141.98005295 15.58155251 C144.25492159 15.57669424 146.52978661 15.56510207 148.8045845 15.54651451 C151.99712648 15.52205322 155.1887398 15.52310138 158.38134766 15.5300293 C159.31158752 15.51721924 160.24182739 15.50440918 161.20025635 15.49121094 C170.03560474 15.56068818 178.02199263 18.18179353 184.5390625 24.31640625 C192.60818249 33.61531191 193.46473652 46.65843853 193.25 58.375 C193.24484375 59.52355469 193.2396875 60.67210937 193.234375 61.85546875 C193.1561655 70.25321378 193.1561655 70.25321378 192.52497864 73.27156067 C190.22459013 85.227229 190.88442998 97.88349927 190.95540047 109.9979763 C190.97306522 113.11513618 190.9831745 116.23224298 190.99131775 119.34944153 C191.01553933 128.20070392 191.05133948 137.05189368 191.09594727 145.90307617 C191.12286452 151.34740549 191.13981539 156.79169468 191.15081596 162.23607826 C191.15697904 164.29437059 191.16692459 166.35265551 191.18089485 168.41090965 C191.3968817 200.48942662 191.3968817 200.48942662 181.14453125 212.1015625 C175.72745717 217.18344837 169.54153413 221 162 221 C162 228.92 162 236.84 162 245 C159.03 245 156.06 245 153 245 C153 238.07 153 231.14 153 224 C150.36 224.33 147.72 224.66 145 225 C145.33 225.99 145.66 226.98 146 228 C146.92550304 235.69690499 146.24476978 241.31952865 141.81640625 247.76171875 C123.12520878 270.79409757 85.91884571 278.36257324 58 282 C58.45375 282.969375 58.9075 283.93875 59.375 284.9375 C63.14442665 293.80713059 63.74636113 303.4543608 64.76757812 312.94140625 C65.90447873 322.75267002 67.32083088 333.27276977 74 341 C75.21980282 341.89676182 76.47089153 342.75257271 77.75 343.5625 C80.77489534 345.51745419 80.94823694 345.83608366 82.125 349.5625 C82 353 82 353 80.9375 355.4375 C79 357 79 357 76 357.4375 C72.66200312 356.95070879 71.97631794 356.62164625 70 354 C69.62890625 351.6953125 69.62890625 351.6953125 69.5625 349.125 C69.22296978 344.4191111 68.18641362 342.55057518 65 339 C62.62515064 334.55621408 61 331.08954976 61 326 C60.01 326 59.02 326 58 326 C58 322.7 58 319.4 58 316 C54.7 316 51.4 316 48 316 C48 319.3 48 322.6 48 326 C46.35 326 44.7 326 43 326 C43 318.41 43 310.82 43 303 C44.65 303 46.3 303 48 303 C48 305.97 48 308.94 48 312 C50.97 312 53.94 312 57 312 C56.91156105 309.22789634 56.80451949 306.45843309 56.6875 303.6875 C56.66494141 302.92115234 56.64238281 302.15480469 56.61914062 301.36523438 C56.32627199 294.9487489 54.87561352 289.12961219 53 283 C51.83150513 283.13631836 51.83150513 283.13631836 50.6394043 283.27539062 C35.39034616 285.02725237 20.37018967 286.51680588 5 286 C5.3974605 288.89965499 5.81706912 291.79311157 6.25 294.6875 C6.35957031 295.50412109 6.46914062 296.32074219 6.58203125 297.16210938 C7.37623538 302.32443624 8.55076311 304.96306352 12 309 C12.79968461 312.73921494 12.63549932 316.23631004 12 320 C9.8125 323.3125 9.8125 323.3125 8.41796875 324.93359375 C6.49159603 327.74089724 5.66657309 330.63954869 4.625 333.875 C2.75643628 339.43353498 0.63414513 343.46690837 -3.25390625 347.83984375 C-8.26671089 354.04136716 -9.60984325 357.95077694 -8.8125 365.75 C-8.75513672 366.48476563 -8.69777344 367.21953125 -8.63867188 367.9765625 C-8.45009905 370.32054298 -8.22490178 372.65922191 -8 375 C-7.8227527 376.93252034 -7.64658414 378.86513989 -7.47143555 380.79785156 C-7.38274704 381.77578674 -7.29405853 382.75372192 -7.2026825 383.7612915 C-7.13579727 384.50006531 -7.06891205 385.23883911 -7 386 C-25.60253528 386.07018923 -44.20504355 386.12303666 -62.80768394 386.15543652 C-71.44589041 386.17088252 -80.08401443 386.19192853 -88.72216797 386.22631836 C-96.25423573 386.25629031 -103.78624376 386.27559147 -111.31836951 386.28226548 C-115.30381711 386.28616458 -119.28909388 386.29528033 -123.27448654 386.31719017 C-127.03209257 386.33767876 -130.78945874 386.34380905 -134.54711533 386.33932304 C-136.57056501 386.34053114 -138.59398908 386.35660811 -140.61737061 386.3732605 C-147.70068761 386.34942182 -154.48584119 386.07169069 -161 383 C-162.3315579 380.3368842 -161.99102192 378.55170527 -161.80981445 375.57672119 C-161.74243073 374.42463669 -161.675047 373.27255219 -161.60562134 372.08555603 C-161.48566299 370.17970482 -161.48566299 370.17970482 -161.36328125 368.23535156 C-161.28248688 366.88836115 -161.20220752 365.54133976 -161.12240601 364.19429016 C-160.94922656 361.28740402 -160.77266412 358.38074962 -160.59359741 355.47422028 C-160.31004497 350.86672786 -160.03570183 346.25871582 -159.76293945 341.65057373 C-159.03446277 329.36756846 -158.29415752 317.08528153 -157.54758358 304.80336356 C-157.05787184 296.74646374 -156.57347403 288.68928268 -156.09884548 280.63147902 C-155.82936852 276.06371962 -155.55167195 271.49656136 -155.26757812 266.92968893 C-155.09135232 264.06570019 -154.9228734 261.20129183 -154.75639725 258.33672142 C-154.64187408 256.4043689 -154.51833826 254.47255687 -154.39437866 252.54078674 C-153.31507818 233.54559832 -155.30322712 217.12057541 -168.2890625 202.40625 C-173.32196962 197.22954554 -178.75571371 192.675306 -184.3828125 188.1640625 C-190.77587294 182.87786029 -197.2402159 177.42366349 -199 169 C-199.45000863 162.5241286 -198.67351918 156.13774336 -197.828125 149.7265625 C-197.70443542 148.76334076 -197.58074585 147.80011902 -197.45330811 146.80770874 C-197.19051501 144.77523828 -196.92477923 142.74314634 -196.65625 140.71142578 C-196.25585289 137.6694665 -195.86949462 134.62595748 -195.484375 131.58203125 C-194.2733261 122.1863644 -192.93025802 112.82226321 -191.109375 103.5234375 C-190.97315735 102.77534821 -190.8369397 102.02725891 -190.69659424 101.25650024 C-189.32150321 94.65229416 -186.40393569 89.28373891 -181.5 84.625 C-177.95790901 82.32264086 -175.25227445 81 -171 81 C-170.773125 79.865625 -170.54625 78.73125 -170.3125 77.5625 C-168.20998671 69.4116608 -164.47485449 63.43386012 -157.58984375 58.5078125 C-150.48179799 54.36949325 -142.26142661 51.67880846 -134 53 C-129.2829276 54.57235747 -125.63141046 56.58867502 -122 60 C-122 60.66 -122 61.32 -122 62 C-121.01 62 -120.02 62 -119 62 C-118.79375 61.4225 -118.5875 60.845 -118.375 60.25 C-115.98035626 56.33149206 -112.27248678 54.42416226 -108 53 C-100.28623577 52.35630695 -93.39055037 52.20708722 -87 57 C-84.41607244 59.67005848 -83.25555485 62.52307888 -82 66 C-80.453125 64.824375 -80.453125 64.824375 -78.875 63.625 C-72.60745378 59.20894448 -66.57325972 58.07615356 -59 59 C-53.26054747 60.68006126 -48.73905619 63.24120121 -45 68 C-43.6875 71.3125 -43.6875 71.3125 -43 74 C-36.43650085 70.009929 -33.01004046 65.18127652 -28.9375 58.75 C-28.05868164 57.39455078 -28.05868164 57.39455078 -27.16210938 56.01171875 C-26.00150933 54.2212259 -24.84563294 52.42766109 -23.69482422 50.63085938 C-21.17695742 46.72239889 -18.59240239 42.85928581 -16 39 C-12.4542134 43.27182862 -9.35663903 47.78230743 -6.25 52.375 C-2.56077378 57.81289825 1.14917515 63.23134142 4.953125 68.58984375 C20.86907382 91.05137104 34.76518711 114.01490268 44 140 C45.92922421 117.79116666 45.23142162 102.69660544 30.92724609 84.46875 C28.73252794 81.65737555 26.74680599 78.74908271 24.7722168 75.78149414 C23.50071376 73.87606961 22.19826261 71.99640252 20.8828125 70.12109375 C12.09777741 57.58040933 3.34125157 45.04186304 -4.36328125 31.80078125 C-5.51473911 29.83038677 -6.73407868 27.89888199 -8 26 C-7.62611965 22.09065457 -6.1505167 18.8124351 -4.5625 15.25 C-2.39039234 10.17756362 -0.99350486 5.41911739 0 0 Z " fill="#FDF3EB" transform="translate(249,63)"/>
<path d="M0 0 C0.66 0 1.32 0 2 0 C2.4021875 1.56234375 2.4021875 1.56234375 2.8125 3.15625 C8.39984491 23.94910255 19.42683195 42.63705364 32 60 C33.65568006 62.36821627 35.29653379 64.746574 36.9375 67.125 C38.29155575 69.08341003 39.64570385 71.04175621 41 73 C41.01401855 71.68563965 41.01401855 71.68563965 41.02832031 70.34472656 C41.07283459 67.03408646 41.13466293 63.72464401 41.20751953 60.41455078 C41.23541592 58.99311756 41.25678304 57.57153824 41.27099609 56.14990234 C41.39456131 44.4771079 42.54073572 33.06999836 50.22265625 23.6875 C55.57260799 18.60798538 62.02947432 15.89459507 69.36196899 15.85282898 C70.22808807 15.84567368 71.09420715 15.83851837 71.98657227 15.83114624 C72.92895752 15.82845734 73.87134277 15.82576843 74.84228516 15.82299805 C75.84117767 15.81642685 76.84007019 15.80985565 77.86923218 15.80308533 C81.17584308 15.7833718 84.48240856 15.77169288 87.7890625 15.76171875 C88.92029919 15.75764322 90.05153587 15.7535677 91.21705246 15.74936867 C97.2067115 15.72851442 103.19634768 15.7142109 109.18603516 15.70483398 C115.35958196 15.69378191 121.53276712 15.6593936 127.70618629 15.61966228 C132.46414846 15.59346106 137.22202499 15.58513892 141.98005295 15.58155251 C144.25492159 15.57669424 146.52978661 15.56510207 148.8045845 15.54651451 C151.99712648 15.52205322 155.1887398 15.52310138 158.38134766 15.5300293 C159.31158752 15.51721924 160.24182739 15.50440918 161.20025635 15.49121094 C170.03560474 15.56068818 178.02199263 18.18179353 184.5390625 24.31640625 C192.60818249 33.61531191 193.46473652 46.65843853 193.25 58.375 C193.24484375 59.52355469 193.2396875 60.67210937 193.234375 61.85546875 C193.1561655 70.25321378 193.1561655 70.25321378 192.52497864 73.27156067 C190.22459013 85.227229 190.88442998 97.88349927 190.95540047 109.9979763 C190.97306522 113.11513618 190.9831745 116.23224298 190.99131775 119.34944153 C191.01553933 128.20070392 191.05133948 137.05189368 191.09594727 145.90307617 C191.12286452 151.34740549 191.13981539 156.79169468 191.15081596 162.23607826 C191.15697904 164.29437059 191.16692459 166.35265551 191.18089485 168.41090965 C191.3968817 200.48942662 191.3968817 200.48942662 181.14453125 212.1015625 C175.72745717 217.18344837 169.54153413 221 162 221 C162 228.92 162 236.84 162 245 C159.03 245 156.06 245 153 245 C153 238.07 153 231.14 153 224 C150.36 224.33 147.72 224.66 145 225 C145.33 225.99 145.66 226.98 146 228 C146.92550304 235.69690499 146.24476978 241.31952865 141.81640625 247.76171875 C123.12520878 270.79409757 85.91884571 278.36257324 58 282 C58.45375 282.969375 58.9075 283.93875 59.375 284.9375 C63.14442665 293.80713059 63.74636113 303.4543608 64.76757812 312.94140625 C65.90447873 322.75267002 67.32083088 333.27276977 74 341 C75.21980282 341.89676182 76.47089153 342.75257271 77.75 343.5625 C80.77489534 345.51745419 80.94823694 345.83608366 82.125 349.5625 C82 353 82 353 80.9375 355.4375 C79 357 79 357 76 357.4375 C72.66200312 356.95070879 71.97631794 356.62164625 70 354 C69.62890625 351.6953125 69.62890625 351.6953125 69.5625 349.125 C69.22296978 344.4191111 68.18641362 342.55057518 65 339 C62.62515064 334.55621408 61 331.08954976 61 326 C60.01 326 59.02 326 58 326 C58 322.7 58 319.4 58 316 C54.7 316 51.4 316 48 316 C48 319.3 48 322.6 48 326 C46.35 326 44.7 326 43 326 C43 318.41 43 310.82 43 303 C44.65 303 46.3 303 48 303 C48 305.97 48 308.94 48 312 C50.97 312 53.94 312 57 312 C56.91156105 309.22789634 56.80451949 306.45843309 56.6875 303.6875 C56.66494141 302.92115234 56.64238281 302.15480469 56.61914062 301.36523438 C56.32627199 294.9487489 54.87561352 289.12961219 53 283 C52.00432007 283.13631836 52.00432007 283.13631836 50.98852539 283.27539062 C-0.64058314 290.07730003 -61.88290209 289.8998495 -110 268 C-110.6305127 267.71543945 -111.26102539 267.43087891 -111.91064453 267.13769531 C-124.49104106 261.38818897 -136.97713953 254.66924845 -143.1328125 241.59375 C-145.06324633 235.8198398 -144.96869003 229.32296347 -142.4375 223.75 C-135.20960854 211.50480932 -121.43878472 204.76792568 -108.8125 199.375 C-107.9865332 199.01994385 -107.16056641 198.6648877 -106.30957031 198.29907227 C-105.14506348 197.82232056 -105.14506348 197.82232056 -103.95703125 197.3359375 C-102.92026245 196.91127197 -102.92026245 196.91127197 -101.86254883 196.47802734 C-100 196 -100 196 -97 197 C-97.68964844 197.3403125 -98.37929687 197.680625 -99.08984375 198.03125 C-107.78062735 202.51373921 -116.47021402 207.68968853 -120.40625 217.07421875 C-122.00232438 222.25095999 -121.2090713 226.07961138 -119.125 230.9375 C-111.61738031 244.68413883 -93.30356934 251.41798521 -79.08984375 255.84765625 C-56.27895663 262.40134097 -33.70017221 265.50400353 -10 266 C-8.49856445 266.04084717 -8.49856445 266.04084717 -6.96679688 266.08251953 C27.41097928 266.95014912 66.81170095 264.75340656 98.00390625 248.8828125 C100 248 100 248 103 248 C102.67 241.4 102.34 234.8 102 228 C96.39 227.01 90.78 226.02 85 225 C85 230.61 85 236.22 85 242 C82.03 242 79.06 242 76 242 C76 235.4 76 228.8 76 222 C68.37423072 221.13339731 68.37423072 221.13339731 65.0859375 224.4921875 C64.1643243 225.60515473 63.26144048 226.73382069 62.375 227.875 C49.69515852 242.81508101 31.56428732 252.59493395 12 255 C-12.8088363 256.27263343 -12.8088363 256.27263343 -24 252 C-24.66 251.34 -25.32 250.68 -26 250 C-24.82824219 249.95101562 -23.65648437 249.90203125 -22.44921875 249.8515625 C1.90420208 248.74281842 23.7210124 242.22147784 41 224 C48.88381484 215.16426944 53.7920694 206.02970111 58 195 C58.34933594 194.08605469 58.69867188 193.17210937 59.05859375 192.23046875 C67.39144095 168.82673044 61.28010369 141.9754937 51.08544922 120.26708984 C50.72725098 119.5189502 50.36905273 118.77081055 50 118 C49.66371582 117.29697754 49.32743164 116.59395508 48.98095703 115.86962891 C39.55207878 96.52330584 27.02669459 78.85580197 14.69921875 61.28515625 C10.01076744 54.60116273 5.42460369 47.86150471 1 41 C0.57009766 40.33967773 0.14019531 39.67935547 -0.30273438 38.99902344 C-1.61557075 36.96843929 -2.90470665 34.92466708 -4.1875 32.875 C-4.78679321 31.95074219 -4.78679321 31.95074219 -5.39819336 31.0078125 C-7.01220195 28.3747175 -8.02374663 26.55804585 -7.890625 23.4296875 C-6.87288854 20.65323102 -5.76669532 17.95139959 -4.5625 15.25 C-2.39039234 10.17756362 -0.99350486 5.41911739 0 0 Z " fill="#F8BFBF" transform="translate(249,63)"/>
<path d="M0 0 C3.5457866 4.27182862 6.64336097 8.78230743 9.75 13.375 C13.43922622 18.81289825 17.14917515 24.23134142 20.953125 29.58984375 C40.50891253 57.18812647 62.16380772 89.05496564 64 124 C64.04125 124.77472656 64.0825 125.54945313 64.125 126.34765625 C64.74191649 150.06038367 55.01795204 170.99750693 39 188 C36.45916033 190.53634261 33.86103315 192.83327615 31 195 C30.42507813 195.44601562 29.85015625 195.89203125 29.2578125 196.3515625 C17.58067028 204.5205504 1.94259197 207.20697065 -12 206 C-28.79641719 202.83627745 -42.07005519 193.66015072 -52.2578125 179.96484375 C-59.92404564 168.20315146 -64.9638343 155.04403043 -66 141 C-66.04914551 140.35401855 -66.09829102 139.70803711 -66.14892578 139.04248047 C-68.74653079 99.42667649 -44.83381322 65.47961625 -23.35546875 34.41210938 C-19.77376743 29.22980773 -16.23311551 24.01952037 -12.6875 18.8125 C-12.09606201 17.9469751 -11.50462402 17.0814502 -10.89526367 16.18969727 C-7.22558667 10.8180339 -3.59673475 5.42077562 0 0 Z " fill="#F05B59" transform="translate(233,102)"/>
<path d="M0 0 C30.69 0 61.38 0 93 0 C93 30.69 93 61.38 93 93 C65.28 93 37.56 93 9 93 C7.68 87.72 6.36 82.44 5 77 C3.6538562 73.75990112 3.6538562 73.75990112 2.28051758 70.4543457 C-0.63104712 63.1983314 -0.63876898 56.46885603 -0.48828125 48.73046875 C-0.48324585 47.48543579 -0.47821045 46.24040283 -0.47302246 44.9576416 C-0.44713134 40.36735555 -0.37732749 35.77740128 -0.3125 31.1875 C-0.1578125 15.7496875 -0.1578125 15.7496875 0 0 Z " fill="#F9F8F8" transform="translate(323,130)"/>
<path d="M0 0 C3.5457866 4.27182862 6.64336097 8.78230743 9.75 13.375 C13.43922622 18.81289825 17.14917515 24.23134142 20.953125 29.58984375 C40.50891253 57.18812647 62.16380772 89.05496564 64 124 C64.04125 124.77472656 64.0825 125.54945313 64.125 126.34765625 C64.74191649 150.06038367 55.01795204 170.99750693 39 188 C36.45916033 190.53634261 33.86103315 192.83327615 31 195 C30.42507813 195.44601562 29.85015625 195.89203125 29.2578125 196.3515625 C19.43760883 203.22149039 7.78898135 205.79228689 -4 205 C-4.69449653 195.11966995 -3.00515719 187.77996978 0.75 178.6875 C1.67790445 176.31615257 2.59982566 173.94245483 3.515625 171.56640625 C3.95197266 170.43605957 4.38832031 169.30571289 4.83789062 168.14111328 C10.41724176 153.06045536 12.37017422 137.2537137 12.25 121.25 C12.24656586 120.59325287 12.24313171 119.93650574 12.23959351 119.25985718 C12.14893226 104.43483198 11.01272184 90.87242964 6.58911133 76.67895508 C4.93068403 71.07497236 5.12318558 66.72852091 6 61 C6.95171436 49.23690849 6.95171436 49.23690849 2 39 C-3.20910098 34.82852678 -8.04823667 32.98426286 -14.6875 32.4375 C-15.68136719 32.35371094 -16.67523438 32.26992187 -17.69921875 32.18359375 C-18.83810547 32.09271484 -18.83810547 32.09271484 -20 32 C-18.31294217 26.856531 -15.26907237 22.68288187 -12.25 18.25 C-11.73695313 17.48945312 -11.22390625 16.72890625 -10.6953125 15.9453125 C-9.66116997 14.41228714 -8.62536891 12.88037923 -7.58789062 11.34960938 C-5.03968648 7.57901948 -2.51969632 3.7896773 0 0 Z " fill="#EB1E28" transform="translate(233,102)"/>
<path d="M0 0 C-0.68964844 0.3403125 -1.37929687 0.680625 -2.08984375 1.03125 C-10.78062735 5.51373921 -19.47021402 10.68968853 -23.40625 20.07421875 C-25.00232438 25.25095999 -24.2090713 29.07961138 -22.125 33.9375 C-14.61738031 47.68413883 3.69643066 54.41798521 17.91015625 58.84765625 C40.72104337 65.40134097 63.29982779 68.50400353 87 69 C88.00095703 69.02723145 89.00191406 69.05446289 90.03320312 69.08251953 C129.01243616 70.06628113 182.57701758 68.08911158 212.9375 40.3125 C217.99778949 34.63884209 219.51123756 30.53890063 219.390625 22.91015625 C218.5508188 16.65360004 215.06773337 12.74914927 210.36328125 8.76953125 C205.7685569 5.32818928 201.18024644 2.48347109 196 0 C200.53007289 -1.5100243 203.49078419 0.49260771 207.75 2.3125 C209.0179541 2.85293945 209.0179541 2.85293945 210.31152344 3.40429688 C221.52456616 8.358799 232.89284425 14.71154596 240 25 C240.639375 25.9075 241.27875 26.815 241.9375 27.75 C243.90066381 33.75497166 244.24108415 39.79500248 241.93359375 45.75390625 C230.26228086 66.58417857 203.21338702 73.95494008 181.7824707 80.04980469 C172.97015527 82.42507391 164.0403993 83.82216512 155 85 C155.45375 85.969375 155.9075 86.93875 156.375 87.9375 C160.14442665 96.80713059 160.74636113 106.4543608 161.76757812 115.94140625 C162.90447873 125.75267002 164.32083088 136.27276977 171 144 C172.21980282 144.89676182 173.47089153 145.75257271 174.75 146.5625 C177.77489534 148.51745419 177.94823694 148.83608366 179.125 152.5625 C179 156 179 156 177.9375 158.4375 C176 160 176 160 173 160.4375 C169.66200312 159.95070879 168.97631794 159.62164625 167 157 C166.62890625 154.6953125 166.62890625 154.6953125 166.5625 152.125 C166.22296978 147.4191111 165.18641362 145.55057518 162 142 C159.62515064 137.55621408 158 134.08954976 158 129 C157.01 129 156.02 129 155 129 C155 125.7 155 122.4 155 119 C151.7 119 148.4 119 145 119 C145 122.3 145 125.6 145 129 C143.35 129 141.7 129 140 129 C140 121.41 140 113.82 140 106 C141.65 106 143.3 106 145 106 C145 108.97 145 111.94 145 115 C147.97 115 150.94 115 154 115 C153.91156105 112.22789634 153.80451949 109.45843309 153.6875 106.6875 C153.66494141 105.92115234 153.64238281 105.15480469 153.61914062 104.36523438 C153.32627199 97.9487489 151.87561352 92.12961219 150 86 C149.00432007 86.13631836 149.00432007 86.13631836 147.98852539 86.27539062 C96.35941686 93.07730003 35.11709791 92.8998495 -13 71 C-13.6305127 70.71543945 -14.26102539 70.43087891 -14.91064453 70.13769531 C-27.49104106 64.38818897 -39.97713953 57.66924845 -46.1328125 44.59375 C-48.06324633 38.8198398 -47.96869003 32.32296347 -45.4375 26.75 C-38.20960854 14.50480932 -24.43878472 7.76792568 -11.8125 2.375 C-10.9865332 2.01994385 -10.16056641 1.6648877 -9.30957031 1.29907227 C-8.53323242 0.98123779 -7.75689453 0.66340332 -6.95703125 0.3359375 C-5.92026245 -0.08872803 -5.92026245 -0.08872803 -4.86254883 -0.52197266 C-3 -1 -3 -1 0 0 Z " fill="#3D3D3F" transform="translate(152,260)"/>
<path d="M0 0 C13.125 2.875 13.125 2.875 17.16845703 3.76904297 C30.05795978 6.56029221 42.84403606 8.22962774 56 9.0625 C57.24225342 9.14483887 58.48450684 9.22717773 59.7644043 9.31201172 C70.83637107 10.02862091 81.91366496 10.56613725 93 11 C93.17015625 12.24136719 93.3403125 13.48273438 93.515625 14.76171875 C93.7595868 16.40376934 94.00442471 18.04568994 94.25 19.6875 C94.41435547 20.91243164 94.41435547 20.91243164 94.58203125 22.16210938 C95.37623538 27.32443624 96.55076311 29.96306352 100 34 C100.79968461 37.73921494 100.63549932 41.23631004 100 45 C97.8125 48.3125 97.8125 48.3125 96.41796875 49.93359375 C94.49159603 52.74089724 93.66657309 55.63954869 92.625 58.875 C90.42134216 65.4234091 87.45601129 69.82253926 83 75 C82.20864164 76.15284304 81.43461187 77.31800212 80.6875 78.5 C79 81 79 81 77 82 C72.46839508 82.21227405 67.93299802 82.18579546 63.39697266 82.18530273 C61.14075741 82.18748476 58.88503466 82.20563167 56.62890625 82.22460938 C55.19271 82.22754431 53.75651144 82.22952844 52.3203125 82.23046875 C51.01336426 82.23457764 49.70641602 82.23868652 48.35986328 82.24291992 C45.26155175 82.01891033 43.57910472 81.64796546 41 80 C41 80.66 41 81.32 41 82 C38.03 82 35.06 82 32 82 C32 79.69 32 77.38 32 75 C31.34 75 30.68 75 30 75 C30.04125 75.78375 30.0825 76.5675 30.125 77.375 C30 80 30 80 28 82 C25.31160615 82.26991906 22.70858064 82.08737357 20 82 C20.03222656 81.10539062 20.06445312 80.21078125 20.09765625 79.2890625 C20.0295134 72.18706368 19.58382196 67.74994946 14.625 62.4375 C13.83351562 61.69371094 13.04203125 60.94992187 12.2265625 60.18359375 C9.9374813 57.9386878 8.46587872 55.84191325 7 53 C7 52.34 7 51.68 7 51 C6.01 51 5.02 51 4 51 C2.71875 49.28515625 2.71875 49.28515625 1.5 47.0625 C-0.34120744 43.54226276 -0.34120744 43.54226276 -4 42 C-4 44.97 -4 47.94 -4 51 C-5.65 51 -7.3 51 -9 51 C-9 43.08 -9 35.16 -9 27 C-6.03 27 -3.06 27 0 27 C0 18.09 0 9.18 0 0 Z " fill="#FCF0E8" transform="translate(161,338)"/>
<path d="M0 0 C0.66 0 1.32 0 2 0 C2.268125 1.0415625 2.53625 2.083125 2.8125 3.15625 C8.40472629 23.96726821 19.44819539 42.60455294 32 60 C35.71154455 65.30220649 39.3573128 70.65036393 43 76 C43.56203125 76.82532227 44.1240625 77.65064453 44.703125 78.50097656 C62.45274498 104.64436042 81.22032989 132.64463987 84 165 C84.05591309 165.64984863 84.11182617 166.29969727 84.16943359 166.96923828 C85.81291287 189.2365679 77.70319859 210.58974867 63.34863281 227.47900391 C52.88923643 239.27517325 39.94220093 247.20104496 25 252 C24.04351562 252.3196875 23.08703125 252.639375 22.1015625 252.96875 C8.1874921 256.91289594 -10.32662654 257.22030721 -24 252 C-24.66 251.34 -25.32 250.68 -26 250 C-24.24236328 249.92652344 -24.24236328 249.92652344 -22.44921875 249.8515625 C1.90420208 248.74281842 23.7210124 242.22147784 41 224 C48.88381484 215.16426944 53.7920694 206.02970111 58 195 C58.34933594 194.08605469 58.69867188 193.17210937 59.05859375 192.23046875 C67.39144095 168.82673044 61.28010369 141.9754937 51.08544922 120.26708984 C50.54815186 119.14488037 50.54815186 119.14488037 50 118 C49.66371582 117.29697754 49.32743164 116.59395508 48.98095703 115.86962891 C39.55207878 96.52330584 27.02669459 78.85580197 14.69921875 61.28515625 C10.01076744 54.60116273 5.42460369 47.86150471 1 41 C0.57009766 40.33967773 0.14019531 39.67935547 -0.30273438 38.99902344 C-1.61557075 36.96843929 -2.90470665 34.92466708 -4.1875 32.875 C-4.58702881 32.25882813 -4.98655762 31.64265625 -5.39819336 31.0078125 C-7.01220195 28.3747175 -8.02374663 26.55804585 -7.890625 23.4296875 C-6.87288854 20.65323102 -5.76669532 17.95139959 -4.5625 15.25 C-2.39039234 10.17756362 -0.99350486 5.41911739 0 0 Z " fill="#915B5E" transform="translate(249,63)"/>
<path d="M0 0 C-0.68964844 0.3403125 -1.37929687 0.680625 -2.08984375 1.03125 C-10.78062735 5.51373921 -19.47021402 10.68968853 -23.40625 20.07421875 C-25.00232438 25.25095999 -24.2090713 29.07961138 -22.125 33.9375 C-14.61738031 47.68413883 3.69643066 54.41798521 17.91015625 58.84765625 C40.75030081 65.40974678 63.27115719 68.4102814 87 69 C87 69.33 87 69.66 87 70 C84.36 70 81.72 70 79 70 C79.495 78.91 79.495 78.91 80 88 C68.17959481 88.2364081 56.73083168 87.43950603 45 86 C44.23204102 85.90879883 43.46408203 85.81759766 42.67285156 85.72363281 C23.86047351 83.40563552 4.29541878 78.87177708 -13 71 C-13.6305127 70.71543945 -14.26102539 70.43087891 -14.91064453 70.13769531 C-27.49104106 64.38818897 -39.97713953 57.66924845 -46.1328125 44.59375 C-48.06324633 38.8198398 -47.96869003 32.32296347 -45.4375 26.75 C-38.20960854 14.50480932 -24.43878472 7.76792568 -11.8125 2.375 C-10.9865332 2.01994385 -10.16056641 1.6648877 -9.30957031 1.29907227 C-8.53323242 0.98123779 -7.75689453 0.66340332 -6.95703125 0.3359375 C-5.92026245 -0.08872803 -5.92026245 -0.08872803 -4.86254883 -0.52197266 C-3 -1 -3 -1 0 0 Z " fill="#786044" transform="translate(152,260)"/>
<path d="M0 0 C2.64 0.33 5.28 0.66 8 1 C8 7.6 8 14.2 8 21 C10.97 21 13.94 21 17 21 C17 15.39 17 9.78 17 4 C21.1765625 4.4640625 21.1765625 4.4640625 25.4375 4.9375 C26.31591553 5.03281006 27.19433105 5.12812012 28.09936523 5.22631836 C33.88888889 5.88888889 33.88888889 5.88888889 35 7 C35.08669432 8.4887186 35.10703494 9.981445 35.09765625 11.47265625 C35.09282227 12.82133789 35.09282227 12.82133789 35.08789062 14.19726562 C35.07532227 15.61555664 35.07532227 15.61555664 35.0625 17.0625 C35.05798828 18.01189453 35.05347656 18.96128906 35.04882812 19.93945312 C35.0370011 22.29303065 35.02052025 24.64648477 35 27 C-2.79656518 42.96979282 -46.01528399 50.34211627 -87 45 C-87 40.71 -87 36.42 -87 32 C-85.3603125 32.23783203 -85.3603125 32.23783203 -83.6875 32.48046875 C-59.05471162 35.52709877 -36.0401814 31.20198457 -16 16 C-8.52568418 9.75362934 -8.52568418 9.75362934 -2.3125 2.3125 C-1.1678125 1.1678125 -1.1678125 1.1678125 0 0 Z " fill="#FCFBFB" transform="translate(317,284)"/>
<path d="M0 0 C15.2164566 2.3979241 33.27274046 11.91442466 42.76953125 24.21875 C43.17558594 24.8065625 43.58164062 25.394375 44 26 C44.639375 26.9075 45.27875 27.815 45.9375 28.75 C47.90066381 34.75497166 48.24108415 40.79500248 45.93359375 46.75390625 C37.20100441 62.33931775 20.14513951 69.52847647 4 75 C4 74.01 4 73.02 4 72 C3.01 71.67 2.02 71.34 1 71 C1 64.73 1 58.46 1 52 C2.69125 51.113125 4.3825 50.22625 6.125 49.3125 C13.82014074 45.09449603 20.08976229 40.73071312 23 32 C23.90657322 24.99987768 23.34971719 19.83472084 19.04296875 14.13671875 C13.5940159 8.43771835 7.06778951 4.38838144 0 1 C0 0.67 0 0.34 0 0 Z " fill="#74383A" transform="translate(348,259)"/>
<path d="M0 0 C1.05960937 -0.01611328 2.11921875 -0.03222656 3.2109375 -0.04882812 C10.33700066 -0.05319459 16.94066112 0.70849697 23.625 3.3125 C25.625 5.3125 25.625 5.3125 25.625 8.3125 C17.94653419 10.93550876 9.97538056 11.29268161 1.93554688 11.9921875 C-7.4484067 12.91951812 -18.49435911 14.20250441 -25.375 21.3125 C-27.97119898 25.20679847 -27.79222156 28.6293927 -27.9375 33.16015625 C-27.97431885 34.04545517 -28.0111377 34.93075409 -28.04907227 35.84288025 C-28.16652813 38.68664943 -28.27182438 41.5306795 -28.375 44.375 C-28.77621409 55.12622531 -29.19323611 65.85386868 -30.3125 76.55859375 C-30.38718506 77.3156813 -30.46187012 78.07276886 -30.53881836 78.85279846 C-31.13186234 84.06936234 -31.13186234 84.06936234 -33.375 86.3125 C-38.70059836 80.47815546 -38.28730606 73.55187185 -38.625 66 C-38.69911673 64.59137172 -38.77358565 63.18276193 -38.84838867 61.77416992 C-39.33836282 51.95833371 -39.59407159 42.1320923 -39.67053223 32.30459595 C-39.68178545 30.85906232 -39.69712324 29.41355434 -39.7166748 27.96810913 C-39.74028161 25.943708 -39.73977547 23.91906947 -39.73828125 21.89453125 C-39.74126221 20.74186768 -39.74424316 19.5892041 -39.74731445 18.40161133 C-39.2105908 13.94838875 -37.43859125 11.37609125 -34.3125 8.25 C-23.84056173 1.34297689 -12.25757106 -0.03700957 0 0 Z " fill="#F9F8F8" transform="translate(345.375,84.6875)"/>
<path d="M0 0 C7.26 0 14.52 0 22 0 C23.25 8.6875 23.25 8.6875 23.61425781 11.3972168 C24.40101919 16.45164853 25.62359283 19.04830236 29 23 C29.79968461 26.73921494 29.63549932 30.23631004 29 34 C26.8125 37.3125 26.8125 37.3125 25.41796875 38.93359375 C23.49159603 41.74089724 22.66657309 44.63954869 21.625 47.875 C19.4766903 54.26536885 16.39655228 61.80172386 10 65 C9.731875 64.21625 9.46375 63.4325 9.1875 62.625 C8.15185568 59.71885077 8.15185568 59.71885077 5 58 C4.3840332 55.13012695 4.3840332 55.13012695 4.05078125 51.48828125 C3.98843796 50.84183151 3.92609467 50.19538177 3.86186218 49.52934265 C3.6657637 47.45803192 3.48932269 45.38553551 3.3125 43.3125 C3.18283852 41.93543356 3.05199223 40.55847813 2.91992188 39.18164062 C2.35502236 33.10435121 1.93107544 27.10984439 2 21 C2.66 21 3.32 21 4 21 C4 19.35 4 17.7 4 16 C3.01 16 2.02 16 1 16 C0.67 10.72 0.34 5.44 0 0 Z " fill="#FEFCFC" transform="translate(232,349)"/>
<path d="M0 0 C1.93019437 2.47305087 3.54948368 4.85794998 4.90234375 7.6875 C5.23339111 8.3798877 5.56443848 9.07227539 5.90551758 9.78564453 C9.44990937 17.39095173 12.79624018 24.8769626 15 33 C15.29777344 34.07636719 15.59554688 35.15273437 15.90234375 36.26171875 C17.78832358 44.16197526 18.27874089 51.71226188 18.3125 59.8125 C18.31797852 60.76680908 18.32345703 61.72111816 18.32910156 62.7043457 C18.23458492 72.09978877 16.48598844 80.52312267 13.0625 89.25 C12.81048828 89.91773438 12.55847656 90.58546875 12.29882812 91.2734375 C10.75211187 95.30834947 8.99667951 99.16160715 7 103 C2.51499532 96.27249298 -1.87652699 88.27593327 -0.70703125 79.90234375 C-0.36001303 78.58993649 0.01527688 77.28468926 0.41796875 75.98828125 C3.89778929 64.10084062 2.36251309 49.62702763 -0.54101562 37.79541016 C-1.14330592 34.12720597 -1.01405577 30.55364204 -0.87890625 26.85546875 C-0.85529526 26.08568192 -0.83168427 25.31589508 -0.80735779 24.52278137 C-0.73112309 22.07748095 -0.6469275 19.63252989 -0.5625 17.1875 C-0.50923899 15.52410532 -0.4564989 13.86069387 -0.40429688 12.19726562 C-0.2755628 8.13129151 -0.13969106 4.06561182 0 0 Z " fill="#F8BEBE" transform="translate(294,171)"/>
<path d="M0 0 C0 0.66 0 1.32 0 2 C0.66 2.185625 1.32 2.37125 2 2.5625 C7.31801213 5.11071414 11.73687249 9.10530874 15 14 C15 14.99 15 15.98 15 17 C-7.68413492 20.41761776 -30.11957943 20.32659996 -53 20 C-53.64511396 15.28609643 -54.12208396 10.7667171 -54.0625 6 C-54.05347656 5.05125 -54.04445312 4.1025 -54.03515625 3.125 C-54.02355469 2.42375 -54.01195312 1.7225 -54 1 C-17.53573348 -0.19388403 -17.53573348 -0.19388403 0 0 Z " fill="#3C3B3D" transform="translate(285,329)"/>
<path d="M0 0 C0.66 0 1.32 0 2 0 C2.268125 1.0415625 2.53625 2.083125 2.8125 3.15625 C8.38804365 23.90518512 19.37676006 42.71476804 32 60 C34.50458966 63.75688449 34.69201876 67.18556648 35.125 71.5625 C35.20991699 72.36864746 35.29483398 73.17479492 35.38232422 74.00537109 C35.95106361 79.69619807 36.18455461 85.27880716 36 91 C31.66936886 87.18567282 28.81363146 82.41633118 25.6875 77.625 C24.4387068 75.72837152 23.18866502 73.83256467 21.9375 71.9375 C21.29167969 70.95910156 20.64585937 69.98070312 19.98046875 68.97265625 C17.39697003 65.09486034 14.75674374 61.25771426 12.11328125 57.4206543 C6.336375 49.03432652 0.75887633 40.60396872 -4.36328125 31.80078125 C-5.51473911 29.83038677 -6.73407868 27.89888199 -8 26 C-7.62611965 22.09065457 -6.1505167 18.8124351 -4.5625 15.25 C-2.39039234 10.17756362 -0.99350486 5.41911739 0 0 Z " fill="#686B6F" transform="translate(249,63)"/>
<path d="M0 0 C0.99 0 1.98 0 3 0 C3 9.24 3 18.48 3 28 C5.64 28.66 8.28 29.32 11 30 C13.99733255 31.74038664 14.04199131 33.14959404 15 36.5625 C15.62563565 43.21141218 11.60815204 48.70960164 7.9375 53.9375 C6.08536259 55.90913014 4.2354598 57.48308085 2 59 C2.25972906 64.87458071 2.25972906 64.87458071 5.1875 69.8125 C10.61534731 74.03415902 14.75111635 75.59061292 21.6015625 75.34375 C25.29974302 74.81371761 27.27961283 73.5260738 30 71 C33.79872696 65.7355263 35.07354007 60.96832332 35.29711914 54.58886719 C35.33708511 53.50804871 35.37705109 52.42723022 35.41822815 51.31365967 C35.45681442 50.15312073 35.4954007 48.99258179 35.53515625 47.796875 C35.57813339 46.60394836 35.62111053 45.41102173 35.66539001 44.1819458 C35.80175175 40.37142657 35.93219605 36.56073073 36.0625 32.75 C36.15390726 30.16665285 36.2456994 27.58331929 36.33789062 25 C36.56306018 18.66681757 36.78337156 12.33348003 37 6 C37.99 6 38.98 6 40 6 C40.07695176 15.8778083 39.98543408 25.7357343 39.67578125 35.609375 C39.61643151 37.61978857 39.55718759 39.63020527 39.49804688 41.640625 C39.40677175 44.7217171 39.31063676 47.80231737 39.20092773 50.8828125 C39.09472304 53.91641759 39.00850662 56.95005073 38.92578125 59.984375 C38.88842361 60.90313416 38.85106598 61.82189331 38.81257629 62.76849365 C38.64469246 69.91923435 40.47725912 74.40041606 45 80 C44.01 81.98 44.01 81.98 43 84 C42.67 83.01 42.34 82.02 42 81 C41.195625 80.21625 40.39125 79.4325 39.5625 78.625 C37.07392216 76.07572514 36.05218733 74.34786879 35 71 C34.113125 71.94875 33.22625 72.8975 32.3125 73.875 C28.18457612 77.93588103 24.95619747 79.09317051 19.1875 79.375 C12.5274405 79.22633796 8.15073653 76.86397166 3.1875 72.5625 C-2 66.48571429 -2 66.48571429 -2 62 C-6.62 64.31 -11.24 66.62 -16 69 C-14.91203125 69.54527344 -13.8240625 70.09054688 -12.703125 70.65234375 C7.33496434 80.86241256 25.34339867 93.90620812 33.375 115.875 C36.18809033 125.26026596 37.39946219 135.21317625 37 145 C36.01 145.33 35.02 145.66 34 146 C33.97421875 145.175 33.9484375 144.35 33.921875 143.5 C32.95195657 123.74893386 27.57472423 106.10288064 13 92 C12.44828125 91.45085937 11.8965625 90.90171875 11.328125 90.3359375 C6.85963046 86.19926186 1.66728688 83.12074447 -3.55859375 80.03515625 C-5.77329215 78.72544244 -7.9572207 77.3614505 -10.09765625 75.93359375 C-19.3837521 70.12244653 -27.41833309 70.25180133 -38 71 C-38 70.01 -38 69.02 -38 68 C-37.34257813 67.99742187 -36.68515625 67.99484375 -36.0078125 67.9921875 C-29.21144111 67.71591224 -23.17102648 66.36730391 -16.75 64.25 C-16.00637207 64.01007324 -15.26274414 63.77014648 -14.49658203 63.52294922 C-4.56785947 60.10464762 4.24563999 54.30309631 9.5 45 C11.35988149 40.96500286 11.06355456 38.25421824 10 34 C5.87277812 32.15847053 1.7237729 31.2337945 -2.6953125 30.4140625 C-3.80780869 30.20117836 -3.80780869 30.20117836 -4.94277954 29.98399353 C-6.5222778 29.68218862 -8.10219653 29.38257728 -9.68249512 29.08499146 C-13.75635164 28.31777121 -17.82722468 27.53501163 -21.8984375 26.75390625 C-22.69262085 26.60197311 -23.4868042 26.45003998 -24.30505371 26.29350281 C-32.89504746 24.64597567 -41.45354846 22.85943067 -50 21 C-50 20.01 -50 19.02 -50 18 C-44.01537908 18.67869945 -38.15621245 19.67523637 -32.25 20.84765625 C-31.35128174 21.02380966 -30.45256348 21.19996307 -29.52661133 21.38145447 C-26.68389788 21.93924571 -23.84194533 22.50080977 -21 23.0625 C-19.06124715 23.4436099 -17.12244551 23.82447174 -15.18359375 24.20507812 C-10.45506289 25.13339107 -5.7275817 26.06681279 -1 27 C-0.67 18.09 -0.34 9.18 0 0 Z " fill="#FCE2DA" transform="translate(127,126)"/>
<path d="M0 0 C8.81424692 -0.06946967 17.62839978 -0.12279566 26.4428606 -0.15543652 C30.53565443 -0.17110146 34.62826114 -0.19235458 38.72094727 -0.22631836 C42.66964752 -0.25888267 46.61816765 -0.27684677 50.56699181 -0.28463173 C52.07451908 -0.29018054 53.58203636 -0.30101595 55.08948708 -0.31719017 C57.19895459 -0.3389263 59.30767509 -0.34196864 61.41723633 -0.34057617 C62.61858719 -0.34723801 63.81993805 -0.35389984 65.05769348 -0.36076355 C68 0 68 0 69.89013672 1.39099121 C71.35925353 3.52082279 71.34477607 4.87612187 71.29296875 7.44921875 C71.28330078 8.29677734 71.27363281 9.14433594 71.26367188 10.01757812 C71.23853516 10.89865234 71.21339844 11.77972656 71.1875 12.6875 C71.16719727 14.02651367 71.16719727 14.02651367 71.14648438 15.39257812 C71.11114079 17.59566166 71.06180493 19.79752582 71 22 C45.93405115 19.27037476 21.93009628 13.85714584 0 1 C0 0.67 0 0.34 0 0 Z " fill="#FAE3C7" transform="translate(141,306)"/>
<path d="M0 0 C-0.68964844 0.3403125 -1.37929687 0.680625 -2.08984375 1.03125 C-10.78062735 5.51373921 -19.47021402 10.68968853 -23.40625 20.07421875 C-25.04040876 25.37448367 -24.15855702 29.14234388 -21.9375 34.0625 C-19.69445791 38.29076325 -17.16263304 41.075886 -13.35546875 43.94140625 C-12.68451172 44.46541016 -12.68451172 44.46541016 -12 45 C-12 45.33 -12 45.66 -12 46 C-12.59538574 46.01981934 -13.19077148 46.03963867 -13.80419922 46.06005859 C-16.49492153 46.15516126 -19.18485148 46.26489842 -21.875 46.375 C-22.81214844 46.4059375 -23.74929687 46.436875 -24.71484375 46.46875 C-26.05869141 46.52675781 -26.05869141 46.52675781 -27.4296875 46.5859375 C-28.25710449 46.6173584 -29.08452148 46.6487793 -29.93701172 46.68115234 C-32.21986085 46.82599137 -32.21986085 46.82599137 -34 49 C-34.46006346 51.20250992 -34.46006346 51.20250992 -34.625 53.625 C-34.69976562 54.44226563 -34.77453125 55.25953125 -34.8515625 56.1015625 C-34.92503906 57.04128906 -34.92503906 57.04128906 -35 58 C-41.67590697 53.0257948 -46.10765529 47.62803375 -47.4453125 39.19140625 C-47.78123997 31.11794942 -45.49515849 25.50366269 -40.125 19.5625 C-31.87442557 11.90373892 -22.08578937 6.76291673 -11.8125 2.375 C-10.9865332 2.01994385 -10.16056641 1.6648877 -9.30957031 1.29907227 C-8.53323242 0.98123779 -7.75689453 0.66340332 -6.95703125 0.3359375 C-5.92026245 -0.08872803 -5.92026245 -0.08872803 -4.86254883 -0.52197266 C-3 -1 -3 -1 0 0 Z " fill="#7B706A" transform="translate(152,260)"/>
<path d="M0 0 C3.01812859 1.43687671 5.77973683 3.08703312 8.5625 4.9375 C9.32691406 5.44152344 10.09132813 5.94554687 10.87890625 6.46484375 C12.79513767 7.85172947 14.38888178 9.27564024 16 11 C5.85197343 20.85958137 -5.53182066 27.67445335 -19 32 C-20.43472656 32.47953125 -20.43472656 32.47953125 -21.8984375 32.96875 C-35.8125079 36.91289594 -54.32662654 37.22030721 -68 32 C-68.66 31.34 -69.32 30.68 -70 30 C-68.24236328 29.92652344 -68.24236328 29.92652344 -66.44921875 29.8515625 C-41.87839823 28.73292082 -20.57994138 22.12325082 -3 4 C-1.97549102 2.68540533 -0.96759649 1.35703161 0 0 Z " fill="#686A6E" transform="translate(293,283)"/>
<path d="M0 0 C0.33 0 0.66 0 1 0 C1.18175781 0.80824219 1.36351562 1.61648437 1.55078125 2.44921875 C1.80214844 3.51785156 2.05351562 4.58648437 2.3125 5.6875 C2.55613281 6.74324219 2.79976563 7.79898437 3.05078125 8.88671875 C3.99395164 11.98016239 5.30293893 14.26953303 7 17 C7.14313339 22.29593533 3.18456346 26.12253152 0 30 C-0.83337891 31.07121094 -0.83337891 31.07121094 -1.68359375 32.1640625 C-13.36198275 46.37904782 -30.72762453 54.94163383 -48.5 58.75 C-53.66782628 59.11913045 -58.8216476 59.07652738 -64 59 C-64 57.35 -64 55.7 -64 54 C-63.01902344 53.85304688 -62.03804687 53.70609375 -61.02734375 53.5546875 C-45.8396045 51.10719423 -33.32738172 46.93616917 -22 36 C-21.20980469 35.23816406 -20.41960937 34.47632813 -19.60546875 33.69140625 C-10.36088814 24.10035072 -4.70215842 12.34316584 0 0 Z " fill="#FBF8F9" transform="translate(293,254)"/>
<path d="M0 0 C13.365 0.495 13.365 0.495 27 1 C27 1.33 27 1.66 27 2 C24.36 2 21.72 2 19 2 C19.495 10.91 19.495 10.91 20 20 C-2.08061076 20.44161222 -24.70368524 17.99357361 -46 12 C-45.34 11.67 -44.68 11.34 -44 11 C-44 10.01 -44 9.02 -44 8 C-30.14 7.67 -16.28 7.34 -2 7 C-1.34 4.69 -0.68 2.38 0 0 Z " fill="#7A6F69" transform="translate(212,328)"/>
<path d="M0 0 C1.98 0 3.96 0 6 0 C10.6351453 9.90235587 11.60733693 20.16283424 12.76757812 30.94140625 C13.90447873 40.75267002 15.32083088 51.27276977 22 59 C23.21980282 59.89676182 24.47089153 60.75257271 25.75 61.5625 C28.77489534 63.51745419 28.94823694 63.83608366 30.125 67.5625 C30 71 30 71 28.9375 73.4375 C27 75 27 75 24 75.4375 C20.66200312 74.95070879 19.97631794 74.62164625 18 72 C17.62890625 69.6953125 17.62890625 69.6953125 17.5625 67.125 C17.22296978 62.4191111 16.18641362 60.55057518 13 57 C10.62515064 52.55621408 9 49.08954976 9 44 C8.01 44 7.02 44 6 44 C6 40.7 6 37.4 6 34 C2.7 34 -0.6 34 -4 34 C-4 37.3 -4 40.6 -4 44 C-5.65 44 -7.3 44 -9 44 C-9 36.41 -9 28.82 -9 21 C-7.35 21 -5.7 21 -4 21 C-4 23.97 -4 26.94 -4 30 C-1.03 30 1.94 30 5 30 C4.76366537 19.36494144 4.1952076 9.95142267 0 0 Z " fill="#F9C4C4" transform="translate(301,345)"/>
<path d="M0 0 C8.35873391 8.35873391 10.41076571 27.78613486 11 39 C11.061875 40.16208984 11.061875 40.16208984 11.125 41.34765625 C11.47278789 54.71575311 8.43376649 66.89215075 3 79 C2.01 79.99 2.01 79.99 1 81 C-1.22238219 74.75449115 -1.26494168 69.02585087 -1.1875 62.4375 C-1.18105469 61.27250977 -1.17460937 60.10751953 -1.16796875 58.90722656 C-1.00915723 39.26918951 -0.47698099 19.63233445 0 0 Z " fill="#ED6167" transform="translate(286,187)"/>
<path d="M0 0 C2.31 0 4.62 0 7 0 C8.33591313 3.64489331 9.66829808 7.29106619 11 10.9375 C11.3815625 11.97841797 11.763125 13.01933594 12.15625 14.09179688 C12.69765625 15.57583008 12.69765625 15.57583008 13.25 17.08984375 C13.58515625 18.00628662 13.9203125 18.92272949 14.265625 19.86694336 C15 22 15 22 15 23 C13.02 23 11.04 23 9 23 C8.67 21.35 8.34 19.7 8 18 C7.34 18 6.68 18 6 18 C5.95875 18.9075 5.9175 19.815 5.875 20.75 C4.43968029 30.44332353 -1.4545719 39.00273743 -9 45 C-14.0625 48 -14.0625 48 -17 48 C-17 49.98 -17 51.96 -17 54 C-18.32 54 -19.64 54 -21 54 C-22.32 51.69 -23.64 49.38 -25 47 C-25.33 49.31 -25.66 51.62 -26 54 C-26.99 54 -27.98 54 -29 54 C-29 49.71 -29 45.42 -29 41 C-24 42 -24 42 -22.1875 44.5625 C-21.795625 45.366875 -21.40375 46.17125 -21 47 C-20.505 44.03 -20.505 44.03 -20 41 C-19.40960938 41.20367187 -18.81921875 41.40734375 -18.2109375 41.6171875 C-15.69286757 42.2913983 -15.69286757 42.2913983 -12.625 40.125 C-5.42474366 34.52822687 -1.97616615 26.38578579 1 18 C0.34 18.33 -0.32 18.66 -1 19 C-1.65213292 21.02463255 -1.65213292 21.02463255 -2 23 C-3.98 23 -5.96 23 -8 23 C-7.04353569 20.10353733 -6.08489932 17.20782423 -5.125 14.3125 C-4.85558594 13.49587891 -4.58617187 12.67925781 -4.30859375 11.83789062 C-2.98167179 7.84094276 -1.63050963 3.88631179 0 0 Z " fill="#F8C0C0" transform="translate(362,366)"/>
<path d="M0 0 C0.33 0 0.66 0 1 0 C0.98667633 0.92628204 0.98667633 0.92628204 0.9730835 1.87127686 C0.88463081 8.29494984 0.82427431 14.71845002 0.78027344 21.14257812 C0.76015064 23.54043606 0.73284941 25.93824488 0.69824219 28.3359375 C0.6497551 31.78137323 0.62703759 35.22616052 0.609375 38.671875 C0.58872986 39.74491882 0.56808472 40.81796265 0.54681396 41.92352295 C0.54651184 42.92425842 0.54620972 43.9249939 0.54589844 44.95605469 C0.53257477 46.27509796 0.53257477 46.27509796 0.51898193 47.62078857 C1.16000224 50.79140303 2.5508034 51.95892057 5 54 C7.91298987 55.60981019 9.6617537 56.0070468 13 55.9375 C17.93035314 54.39676464 20.35243233 51.10615131 22.9140625 46.73046875 C23.47867188 45.56128906 24.04328125 44.39210937 24.625 43.1875 C25.0727478 42.26590088 25.0727478 42.26590088 25.52954102 41.32568359 C27.6218126 36.96175358 29.44309901 32.57912056 31 28 C31.99 28 32.98 28 34 28 C31.53904097 39.07431562 27.51955928 52.07219349 17.5625 58.6875 C13.34093473 60.24281352 10.21493879 60.41825918 6 59 C3.18301002 57.52649755 0.57759176 55.85778555 -2 54 C-2.165 54.845625 -2.33 55.69125 -2.5 56.5625 C-4.58054799 61.33042248 -7.97163683 63.83351918 -12 67 C-7.04847505 67.80984194 -2.35047725 68.1178734 2.68359375 68.09765625 C3.38396255 68.0962413 4.08433136 68.09482635 4.80592346 68.09336853 C7.01649466 68.08782477 9.22696004 68.07528326 11.4375 68.0625 C12.94726415 68.05747771 14.45702991 68.05291609 15.96679688 68.04882812 C19.64456493 68.03787387 23.32227212 68.0206489 27 68 C27 68.99 27 69.98 27 71 C7.67380822 74.59741479 -16.09099189 73.66848796 -34 65 C-34 64.01 -34 63.02 -34 62 C-31.23723823 62.52268466 -28.6739124 63.10869587 -26 64 C-20.02498278 64.53476918 -15.0875139 64.51280722 -10 61 C-4.26106267 55.26106267 -3.7085189 48.28201967 -3.62109375 40.57421875 C-3.60409927 39.78658646 -3.5871048 38.99895416 -3.56959534 38.18745422 C-3.516879 35.68754957 -3.47641009 33.1876544 -3.4375 30.6875 C-2.94356676 2.94356676 -2.94356676 2.94356676 0 0 Z " fill="#EF4A48" transform="translate(205,144)"/>
<path d="M0 0 C0.87245361 0.30413818 1.74490723 0.60827637 2.64379883 0.92163086 C4.0305481 1.41675171 4.0305481 1.41675171 5.4453125 1.921875 C13.42862216 4.68888369 21.26628847 7.05420798 29.5703125 8.671875 C24.81653751 13.84510073 20.79356416 16.75764968 13.671875 17.0703125 C11.8463546 17.07822661 10.0207034 17.07001376 8.1953125 17.046875 C7.2878125 17.05847656 6.3803125 17.07007813 5.4453125 17.08203125 C-0.09283579 17.05809113 -7.22709212 16.87447038 -11.4296875 12.671875 C-11.66796875 10.4921875 -11.66796875 10.4921875 -11.7421875 7.796875 C-11.77957031 6.91257812 -11.81695312 6.02828125 -11.85546875 5.1171875 C-11.4296875 2.671875 -11.4296875 2.671875 -9.59765625 0.9140625 C-5.79701213 -1.26360386 -4.0270748 -1.44007995 0 0 Z " fill="#79797A" transform="translate(157.4296875,314.328125)"/>
<path d="M0 0 C3.79332975 2.75202354 4.69800733 4.12215469 5.4296875 8.671875 C5.64035048 13.25689289 5.51560738 16.14065437 3.125 20.125 C-0.62697217 23.43556368 -3.64828655 23.3875099 -8.515625 23.359375 C-11 23 -11 23 -14.0625 20.625 C-17.39400669 16.11134577 -17.69474963 12.52094369 -17 7 C-12.90667371 -0.64087575 -8.25797413 -1.18990982 0 0 Z " fill="#C22536" transform="translate(256,366)"/>
<path d="M0 0 C2.89683868 2.2015974 4.39297231 3.78594462 6 7 C6.43808718 11.28819956 6.44926618 14.94422448 4.75 18.9375 C2.43633869 21.66431511 0.35897841 22.7909264 -3.18359375 23.3359375 C-7.28583452 23.40703353 -9.43361845 23.35398847 -13 21.125 C-16.79717637 17.09050011 -16.40784893 13.29235863 -16.32421875 7.93359375 C-16 5 -16 5 -14.1875 1.75 C-9.49101221 -0.82846389 -5.23647018 -1.00640868 0 0 Z " fill="#C22838" transform="translate(189,366)"/>
<path d="M0 0 C13.43524892 -0.36977749 13.43524892 -0.36977749 15.96875 1.2890625 C17.70222129 4.16504896 16.63214493 6.83927537 16 10 C16 10.66 16 11.32 16 12 C16.66 12.66 17.32 13.32 18 14 C17.9375 16.9375 17.9375 16.9375 17 20 C11.61815549 24.17724393 6.54861359 23.21588836 0 23 C0 15.41 0 7.82 0 0 Z " fill="#C22838" transform="translate(335,366)"/>
<path d="M0 0 C0.66 0.33 1.32 0.66 2 1 C3.87056791 1.2275015 5.74685958 1.40962811 7.625 1.5625 C8.62789063 1.64628906 9.63078125 1.73007812 10.6640625 1.81640625 C11.43492187 1.87699219 12.20578125 1.93757813 13 2 C13.66964286 9.76785714 13.66964286 9.76785714 10.8125 13.4375 C8.00099259 15.99909564 6.72773314 16.78698668 3 17 C3 16.34 3 15.68 3 15 C0.69 15 -1.62 15 -4 15 C-4.33 15.99 -4.66 16.98 -5 18 C-5 17.34 -5 16.68 -5 16 C-6.175625 15.566875 -6.175625 15.566875 -7.375 15.125 C-10 14 -10 14 -12 12 C-12.1953125 9.6171875 -12.1953125 9.6171875 -12.125 6.875 C-12.10695313 5.96492188 -12.08890625 5.05484375 -12.0703125 4.1171875 C-12.04710937 3.41851562 -12.02390625 2.71984375 -12 2 C-11.21753906 1.93941406 -10.43507813 1.87882812 -9.62890625 1.81640625 C-8.61699219 1.73261719 -7.60507812 1.64882813 -6.5625 1.5625 C-5.55316406 1.48128906 -4.54382813 1.40007812 -3.50390625 1.31640625 C-1.06359221 1.26788532 -1.06359221 1.26788532 0 0 Z " fill="#F9C0C0" transform="translate(366,351)"/>
<path d="M0 0 C2.60121187 2.60121187 2.38774693 3.87048411 2.5 7.5 C2.34851486 15.40563051 -0.64795972 20.65396696 -6.1796875 26.17578125 C-8.07365408 27.85743485 -9.99033246 29.45959493 -12 31 C-13.11984119 27.64047644 -13.028066 25.33089543 -12.87890625 21.80078125 C-12.83056641 20.59228516 -12.78222656 19.38378906 -12.73242188 18.13867188 C-12.67634766 16.87603516 -12.62027344 15.61339844 -12.5625 14.3125 C-12.51029297 13.03826172 -12.45808594 11.76402344 -12.40429688 10.45117188 C-12.27449555 7.30053961 -12.1395244 4.15021423 -12 1 C-3.27872402 -0.28103349 -3.27872402 -0.28103349 0 0 Z " fill="#757375" transform="translate(393,289)"/>
<path d="M0 0 C11 0 11 0 15 3 C15.375 6.5625 15.375 6.5625 15 10 C14.34 10.66 13.68 11.32 13 12 C13.30109351 16.06476236 15.96633261 19.58868696 18 23 C15.3125 23.5 15.3125 23.5 12 23 C10.430648 21.05138794 9.31721635 19.07168959 8.17578125 16.84765625 C7.06331822 14.67077684 7.06331822 14.67077684 4 14 C4 16.97 4 19.94 4 23 C2.68 23 1.36 23 0 23 C0 15.41 0 7.82 0 0 Z " fill="#C02030" transform="translate(153,366)"/>
<path d="M0 0 C2.31 0 4.62 0 7 0 C8.33591313 3.64489331 9.66829808 7.29106619 11 10.9375 C11.3815625 11.97841797 11.763125 13.01933594 12.15625 14.09179688 C12.5171875 15.08115234 12.878125 16.07050781 13.25 17.08984375 C13.58515625 18.00628662 13.9203125 18.92272949 14.265625 19.86694336 C15 22 15 22 15 23 C13.02 23 11.04 23 9 23 C8.67 21.02 8.34 19.04 8 17 C5.03 17 2.06 17 -1 17 C-1.33 18.98 -1.66 20.96 -2 23 C-3.98 23 -5.96 23 -8 23 C-7.04353569 20.10353733 -6.08489932 17.20782423 -5.125 14.3125 C-4.85558594 13.49587891 -4.58617187 12.67925781 -4.30859375 11.83789062 C-2.98167179 7.84094276 -1.63050963 3.88631179 0 0 Z " fill="#C22737" transform="translate(362,366)"/>
<path d="M0 0 C0.58523437 0.4125 1.17046875 0.825 1.7734375 1.25 C11.94788758 8.09407453 23.29532909 13.33414917 35 17 C35 17.33 35 17.66 35 18 C30.33694962 18.07405887 25.67424016 18.12855763 21.01074219 18.16479492 C19.42376749 18.17989814 17.83683463 18.20038223 16.25 18.22631836 C13.97124927 18.26263595 11.69304942 18.27971023 9.4140625 18.29296875 C8.70255035 18.30845261 7.99103821 18.32393646 7.25796509 18.33988953 C5.25634766 18.34057617 5.25634766 18.34057617 2 18 C-0.45391569 14.31912647 -0.22802759 11.55644412 -0.125 7.3125 C-0.11597656 6.61060547 -0.10695313 5.90871094 -0.09765625 5.18554688 C-0.07413704 3.45688475 -0.03826713 1.72839855 0 0 Z " fill="#F9E3C6" transform="translate(117,318)"/>
<path d="M0 0 C1.80282493 2.7042374 2.97959763 5.15225846 4.25 8.125 C7.85269628 16.05093182 11.28133126 21.91230407 18.375 27.125 C22.93162582 30.54417214 22.93162582 30.54417214 23.5625 34.75 C23.376875 35.8225 23.19125 36.895 23 38 C23.309375 39.1446875 23.309375 39.1446875 23.625 40.3125 C23.74875 40.869375 23.8725 41.42625 24 42 C22 44 22 44 20.0546875 44.1953125 C18.03645833 44.13020833 16.01822917 44.06510417 14 44 C14.03222656 43.10539062 14.06445312 42.21078125 14.09765625 41.2890625 C14.0295134 34.18706368 13.58382196 29.74994946 8.625 24.4375 C7.83351562 23.69371094 7.04203125 22.94992187 6.2265625 22.18359375 C3.9374813 19.9386878 2.46587872 17.84191325 1 15 C1 14.34 1 13.68 1 13 C1.66 12.67 2.32 12.34 3 12 C2.62746094 11.54109375 2.25492188 11.0821875 1.87109375 10.609375 C1.39800781 9.99578125 0.92492187 9.3821875 0.4375 8.75 C-0.03816406 8.14671875 -0.51382813 7.5434375 -1.00390625 6.921875 C-2 5 -2 5 -1.71484375 2.828125 C-1 1 -1 1 0 0 Z " fill="#F9C3C2" transform="translate(167,376)"/>
<path d="M0 0 C1.65 0 3.3 0 5 0 C5 2.97 5 5.94 5 9 C8.3 9 11.6 9 15 9 C15 6.03 15 3.06 15 0 C16.32 0 17.64 0 19 0 C19 7.59 19 15.18 19 23 C17.68 23 16.36 23 15 23 C15 19.7 15 16.4 15 13 C11.7 13 8.4 13 5 13 C5 16.3 5 19.6 5 23 C3.35 23 1.7 23 0 23 C0 15.41 0 7.82 0 0 Z " fill="#C12334" transform="translate(292,366)"/>
<path d="M0 0 C1.65 0 3.3 0 5 0 C5.33 2.64 5.66 5.28 6 8 C6.54527344 7.13375 6.54527344 7.13375 7.1015625 6.25 C8.62698908 3.99706228 10.10048075 1.95085761 12 0 C15.375 -0.5 15.375 -0.5 18 0 C17.55527344 0.50789063 17.11054688 1.01578125 16.65234375 1.5390625 C13.06139603 5.76694867 13.06139603 5.76694867 11.8125 11 C13.1650854 14.41705786 14.89475448 17.31939405 16.94140625 20.36328125 C18 22 18 22 18 23 C16.02 23 14.04 23 12 23 C10.35 20.03 8.7 17.06 7 14 C6.67 14 6.34 14 6 14 C5.67 16.97 5.34 19.94 5 23 C3.35 23 1.7 23 0 23 C0 15.41 0 7.82 0 0 Z " fill="#C22737" transform="translate(200,366)"/>
<path d="M0 0 C0 6.27 0 12.54 0 19 C-4.62 19 -9.24 19 -14 19 C-14.33 14.05 -14.66 9.1 -15 4 C-12.710625 3.34 -10.42125 2.68 -8.0625 2 C-6.97980835 1.68675781 -6.97980835 1.68675781 -5.87524414 1.3671875 C-1.11111111 0 -1.11111111 0 0 0 Z " fill="#757476" transform="translate(336,317)"/>
<path d="M0 0 C0.99 0 1.98 0 3 0 C3.33 0.99 3.66 1.98 4 3 C7.00847418 4.22520264 7.00847418 4.22520264 10 5 C10.309375 4.360625 10.61875 3.72125 10.9375 3.0625 C12 1 12 1 13 0 C16.4375 0.25 16.4375 0.25 20 1 C22 4 22 4 21.75 7.5625 C21 11 21 11 19 13 C15.04841529 13.34361606 12.39464446 13.08901197 9 11 C9 11.66 9 12.32 9 13 C6.03 13 3.06 13 0 13 C0 8.71 0 4.42 0 0 Z " fill="#312F2E" transform="translate(193,407)"/>
<path d="M0 0 C3.62310025 1.81155012 7.18606067 3.70047276 10.75 5.625 C11.35199219 5.94984375 11.95398438 6.2746875 12.57421875 6.609375 C14.04977297 7.40570585 15.52492686 8.20277839 17 9 C15.17495091 12.92300272 12.81729174 15.73787272 10 19 C3.38832678 17.3470817 -2.21804408 13.67293388 -6 8 C-4.02 5.36 -2.04 2.72 0 0 Z " fill="#929396" transform="translate(300,274)"/>
<path d="M0 0 C1.37157538 1.63533988 2.69200496 3.31337481 4 5 C4.52416504 5.6077124 5.04833008 6.2154248 5.58837891 6.84155273 C10.89013238 13.61215267 10.72131161 19.71106236 10.375 28.0625 C10.34792969 29.30966797 10.32085937 30.55683594 10.29296875 31.84179688 C10.22274885 34.89636235 10.12444599 37.94724403 10 41 C4.58668841 34.2777092 0.38185897 28.9424681 0.890625 20.0390625 C1.03735301 15.96211992 0.76414559 11.94317863 0.5 7.875 C0.42797363 6.71774414 0.42797363 6.71774414 0.35449219 5.53710938 C0.23902125 3.69123581 0.1198992 1.84559122 0 0 Z " fill="#939396" transform="translate(283,127)"/>
<path d="M0 0 C4.62 0 9.24 0 14 0 C14 1.32 14 2.64 14 4 C11.03 4 8.06 4 5 4 C5 5.65 5 7.3 5 9 C7.64 9 10.28 9 13 9 C13 10.32 13 11.64 13 13 C10.36 13 7.72 13 5 13 C5 14.98 5 16.96 5 19 C7.97 19 10.94 19 14 19 C14 20.32 14 21.64 14 23 C9.38 23 4.76 23 0 23 C0 15.41 0 7.82 0 0 Z " fill="#C12435" transform="translate(317,366)"/>
<path d="M0 0 C1.31291016 0.04253906 1.31291016 0.04253906 2.65234375 0.0859375 C3.53019531 0.09882813 4.40804688 0.11171875 5.3125 0.125 C7.58984375 0.4609375 7.58984375 0.4609375 9.58984375 2.4609375 C9.25984375 3.4509375 8.92984375 4.4409375 8.58984375 5.4609375 C5.94984375 5.4609375 3.30984375 5.4609375 0.58984375 5.4609375 C0.91984375 6.4509375 1.24984375 7.4409375 1.58984375 8.4609375 C2.74484375 9.0384375 3.89984375 9.6159375 5.08984375 10.2109375 C8.3158338 11.94033423 8.50895226 12.22252048 9.77734375 15.9609375 C9.58984375 19.4609375 9.58984375 19.4609375 8.27734375 21.8984375 C4.18588221 24.27719421 0.21324615 23.77857583 -4.41015625 23.4609375 C-4.74015625 21.8109375 -5.07015625 20.1609375 -5.41015625 18.4609375 C-2.44015625 18.4609375 0.52984375 18.4609375 3.58984375 18.4609375 C3.58984375 17.4709375 3.58984375 16.4809375 3.58984375 15.4609375 C1.84036767 14.20765695 1.84036767 14.20765695 -0.34765625 13.1484375 C-4.26138468 10.84461154 -4.26138468 10.84461154 -5.59765625 7.3984375 C-5.3382084 3.33375453 -4.20892538 0.80494845 0 0 Z " fill="#C22838" transform="translate(278.41015625,365.5390625)"/>
<path d="M0 0 C-0.33 0.66 -0.66 1.32 -1 2 C-2.90405273 2.41064453 -2.90405273 2.41064453 -5.43359375 2.6328125 C-6.85478516 2.75873779 -6.85478516 2.75873779 -8.3046875 2.88720703 C-9.33851563 2.96567871 -10.37234375 3.04415039 -11.4375 3.125 C-12.49324219 3.20991699 -13.54898438 3.29483398 -14.63671875 3.38232422 C-26.75076568 4.26564014 -38.86219594 4.19205386 -51 4 C-51 3.67 -51 3.34 -51 3 C-49.7934375 2.98582031 -48.586875 2.97164063 -47.34375 2.95703125 C-36.19478331 3.00265044 -36.19478331 3.00265044 -26.5078125 -1.84375 C-19.01079011 -7.59276199 -7.60615592 -2.88287466 0 0 Z " fill="#F1C4C4" transform="translate(290,326)"/>
<path d="M0 0 C1.98 0.66 3.96 1.32 6 2 C5.67 10.91 5.34 19.82 5 29 C0.71 28.67 -3.58 28.34 -8 28 C-8 35.59 -8 43.18 -8 51 C-8.33 51 -8.66 51 -9 51 C-9 43.08 -9 35.16 -9 27 C-6.03 27 -3.06 27 0 27 C0 18.09 0 9.18 0 0 Z " fill="#F4B7B7" transform="translate(161,338)"/>
<path d="M0 0 C2 3 2 3 2 7 C-4.95771197 6.77555768 -10.99740143 5.23875426 -17.5625 3.0625 C-18.77752197 2.66490479 -18.77752197 2.66490479 -20.01708984 2.25927734 C-25.87184978 0.25630044 -25.87184978 0.25630044 -27 -2 C-18.12047412 -4.00557597 -8.33789035 -4.03607043 0 0 Z " fill="#FAFAF9" transform="translate(182,315)"/>
<path d="M0 0 C5.61 0 11.22 0 17 0 C17 1.32 17 2.64 17 4 C15.02 4 13.04 4 11 4 C11 10.27 11 16.54 11 23 C9.35 23 7.7 23 6 23 C6 16.73 6 10.46 6 4 C4.02 4 2.04 4 0 4 C0 2.68 0 1.36 0 0 Z " fill="#C12131" transform="translate(219,366)"/>
<path d="M0 0 C3.37922971 4.50563961 3.37922971 4.50563961 4.3515625 7.828125 C4.56296875 8.54613281 4.774375 9.26414063 4.9921875 10.00390625 C5.20101563 10.74511719 5.40984375 11.48632812 5.625 12.25 C5.8415625 12.97574219 6.058125 13.70148438 6.28125 14.44921875 C7.68039787 19.294416 8.48921805 23.98298623 9 29 C6.03 29 3.06 29 0 29 C0 19.43 0 9.86 0 0 Z " fill="#959699" transform="translate(323,194)"/>
<path d="M0 0 C1.134375 0.144375 2.26875 0.28875 3.4375 0.4375 C5.50270632 3.53530948 5.73227024 4.3915481 5.75 7.9375 C5.76675781 8.7109375 5.78351563 9.484375 5.80078125 10.28125 C5.34898654 12.96287019 4.59323103 13.82196386 2.4375 15.4375 C-0.5625 15.9375 -0.5625 15.9375 -3.5625 15.4375 C-5.92614152 12.75870628 -6.5045981 10.9103655 -6.9375 7.375 C-6.28898623 2.29497546 -5.19902989 0.63847736 0 0 Z " fill="#FCF4F4" transform="translate(250.5625,369.5625)"/>
<path d="M0 0 C0.99 0 1.98 0 3 0 C3.09796875 0.68707031 3.1959375 1.37414062 3.296875 2.08203125 C3.52117187 3.43361328 3.52117187 3.43361328 3.75 4.8125 C3.88921875 5.70582031 4.0284375 6.59914063 4.171875 7.51953125 C5.18453147 10.55272399 6.27022862 11.4110286 9 13 C11.64934822 13.71433121 11.64934822 13.71433121 14 14 C14 15.65 14 17.3 14 19 C10.37 20.32 6.74 21.64 3 23 C3 22.01 3 21.02 3 20 C2.01 19.67 1.02 19.34 0 19 C0 12.73 0 6.46 0 0 Z " fill="#757375" transform="translate(349,311)"/>
<path d="M0 0 C1.98 0 3.96 0 6 0 C10.76404275 10.1777277 11.27296372 19.43676634 11.125 30.5625 C11.11597656 31.85736328 11.10695313 33.15222656 11.09765625 34.48632812 C11.07425094 37.65774771 11.04146228 40.82877373 11 44 C10.67 44 10.34 44 10 44 C10 36.41 10 28.82 10 21 C8.68 21 7.36 21 6 21 C6 23.97 6 26.94 6 30 C5.67 30 5.34 30 5 30 C4.97421875 28.83984375 4.9484375 27.6796875 4.921875 26.484375 C4.61279313 17.02950985 3.72444072 8.83471984 0 0 Z " fill="#F2B2B4" transform="translate(301,345)"/>
<path d="M0 0 C3.5 -0.3125 3.5 -0.3125 7 0 C9.51012963 2.51012963 9.29721609 3.46805237 9.3125 6.9375 C9.32925781 7.81277344 9.34601563 8.68804687 9.36328125 9.58984375 C9 12 9 12 7.63671875 13.79296875 C5.30371598 15.51348869 3.82828978 15.42424347 1 15 C-1.13397474 13.38042012 -1.91348045 12.51353537 -2.36328125 9.84375 C-2.34652344 9.0703125 -2.32976562 8.296875 -2.3125 7.5 C-2.30863281 6.7265625 -2.30476562 5.953125 -2.30078125 5.15625 C-2 3 -2 3 0 0 Z " fill="#FCEFE8" transform="translate(180,370)"/>
<path d="M0 0 C2.375 2.0625 2.375 2.0625 5 5 C5.52207031 5.56589844 6.04414063 6.13179688 6.58203125 6.71484375 C9.57267719 10.04020918 11.39201215 12.79449331 13 17 C13.99 17.33 14.98 17.66 16 18 C13.03 18.33 10.06 18.66 7 19 C6.67 18.154375 6.34 17.30875 6 16.4375 C2.73261489 10.82168184 -2.08401907 6.69991076 -8 4 C-8 3.34 -8 2.68 -8 2 C-9.98 2 -11.96 2 -14 2 C-14 1.67 -14 1.34 -14 1 C-12.41693353 0.83081732 -10.83353281 0.66476064 -9.25 0.5 C-8.36828125 0.4071875 -7.4865625 0.314375 -6.578125 0.21875 C-4 0 -4 0 0 0 Z " fill="#744042" transform="translate(293,327)"/>
<path d="M0 0 C2 3 2 3 1.75 6.5625 C1 10 1 10 -1 12 C-4.07108055 12.3267107 -6.15050101 12.48138276 -8.875 10.9375 C-10.64273274 7.8930714 -10.36823916 5.4368988 -10 2 C-7.71139092 -2.30797003 -4.19123206 -1.06685907 0 0 Z " fill="#312E2E" transform="translate(329,408)"/>
<path d="M0 0 C2 3 2 3 1.75 6.5625 C1 10 1 10 -1 12 C-4.07108055 12.3267107 -6.15050101 12.48138276 -8.875 10.9375 C-10.64273274 7.8930714 -10.36823916 5.4368988 -10 2 C-7.71139092 -2.30797003 -4.19123206 -1.06685907 0 0 Z " fill="#313131" transform="translate(272,408)"/>
<path d="M0 0 C2 3 2 3 1.75 6.5625 C1 10 1 10 -1 12 C-4.07108055 12.3267107 -6.15050101 12.48138276 -8.875 10.9375 C-10.64273274 7.8930714 -10.36823916 5.4368988 -10 2 C-7.71139092 -2.30797003 -4.19123206 -1.06685907 0 0 Z " fill="#312E2E" transform="translate(227,408)"/>
<path d="M0 0 C6.22222222 -0.35897436 6.22222222 -0.35897436 9.4375 1.125 C11 3 11 3 11.5 5.9375 C11 9 11 9 9.4375 11.375 C6.18317497 13.54455002 3.82869586 13.29451507 0 13 C0 8.71 0 4.42 0 0 Z " fill="#494544" transform="translate(231,407)"/>
<path d="M0 0 C1 2 1 2 0.25 4.94140625 C-5.77183833 22.38591917 -5.77183833 22.38591917 -13 26 C-13.875 23.5625 -13.875 23.5625 -14 20 C-12.68953629 17.6517194 -11.15719058 15.56058852 -9.5703125 13.390625 C-7.23823528 9.84029848 -6.09819002 6.07486298 -5 2 C-5.66 1.67 -6.32 1.34 -7 1 C-3.535 0.505 -3.535 0.505 0 0 Z " fill="#F9C2C3" transform="translate(255,388)"/>
<path d="M0 0 C6.23287671 -0.47945205 6.23287671 -0.47945205 9.5 1.5625 C11 4 11 4 10.9375 7.625 C10 11 10 11 7 13 C4.66800612 13.07905064 2.33167378 13.08798769 0 13 C0 8.71 0 4.42 0 0 Z " fill="#3B3B3B" transform="translate(249,407)"/>
<path d="M0 0 C1.8871875 0.0309375 1.8871875 0.0309375 3.8125 0.0625 C3.51838227 5.94485451 0.79881175 9.91748263 -3.1875 14.0625 C-5.1675 15.0525 -5.1675 15.0525 -7.1875 16.0625 C-7.1875 11.1125 -7.1875 6.1625 -7.1875 1.0625 C-4.43671116 0.14557039 -2.82801087 -0.04636083 0 0 Z " fill="#404042" transform="translate(390.1875,300.9375)"/>
<path d="M0 0 C0.66 0 1.32 0 2 0 C6.84474407 9.68948814 4.17970184 25.98951749 2 36 C1.34 36.66 0.68 37.32 0 38 C0 25.46 0 12.92 0 0 Z " fill="#EC353B" transform="translate(293,214)"/>
<path d="M0 0 C2.05078125 0.03255208 4.1015625 0.06510417 6.15234375 0.09765625 C5.38921875 0.92265625 4.62609375 1.74765625 3.83984375 2.59765625 C-0.14549799 7.37329239 -1.89527993 13.00244777 -2.84765625 19.09765625 C-4.49765625 19.09765625 -6.14765625 19.09765625 -7.84765625 19.09765625 C-8.51442787 11.89652279 -6.51328642 7.26312602 -2.84765625 1.09765625 C-1.84765625 0.09765625 -1.84765625 0.09765625 0 0 Z " fill="#703B3C" transform="translate(256.84765625,329.90234375)"/>
<path d="M0 0 C5 1 5 1 6.8125 3.5625 C7.204375 4.366875 7.59625 5.17125 8 6 C8.33 4.02 8.66 2.04 9 0 C9.99 0 10.98 0 12 0 C12 4.29 12 8.58 12 13 C10.68 13 9.36 13 8 13 C6.02 9.535 6.02 9.535 4 6 C3.67 8.31 3.34 10.62 3 13 C2.01 13 1.02 13 0 13 C0 8.71 0 4.42 0 0 Z " fill="#403C3C" transform="translate(333,407)"/>
<path d="M0 0 C0.99 0 1.98 0 3 0 C3.33 0.99 3.66 1.98 4 3 C7.00847418 4.22520264 7.00847418 4.22520264 10 5 C10.33 6.98 10.66 8.96 11 11 C10.34 11 9.68 11 9 11 C9 11.66 9 12.32 9 13 C6.03 13 3.06 13 0 13 C0 8.71 0 4.42 0 0 Z " fill="#EFC6C4" transform="translate(193,407)"/>
<path d="M0 0 C4 1 4 1 5.75 3.5625 C6.1625 4.366875 6.575 5.17125 7 6 C7.33 4.02 7.66 2.04 8 0 C8.99 0 9.98 0 11 0 C11 4.29 11 8.58 11 13 C9.68 13 8.36 13 7 13 C5.02 9.535 5.02 9.535 3 6 C2.67 8.31 2.34 10.62 2 13 C1.34 13 0.68 13 0 13 C0 8.71 0 4.42 0 0 Z " fill="#3A3A3A" transform="translate(277,407)"/>
<path d="M0 0 C1.859375 0.12109375 1.859375 0.12109375 4 1 C5.265625 3.72265625 5.265625 3.72265625 6.25 7.0625 C6.58515625 8.16722656 6.9203125 9.27195312 7.265625 10.41015625 C7.50796875 11.26480469 7.7503125 12.11945313 8 13 C6.68 13 5.36 13 4 13 C4 12.01 4 11.02 4 10 C2.35 10 0.7 10 -1 10 C-1 10.99 -1 11.98 -1 13 C-1.99 13 -2.98 13 -4 13 C-3.71517632 11.58194169 -3.42181856 10.16559621 -3.125 8.75 C-2.96257812 7.96109375 -2.80015625 7.1721875 -2.6328125 6.359375 C-2.00849925 4.03168856 -1.15161458 2.10968048 0 0 Z " fill="#4A4A4A" transform="translate(294,407)"/>
<path d="M0 0 C1.32 0 2.64 0 4 0 C4.66 5.61 5.32 11.22 6 17 C3.03 17 0.06 17 -3 17 C-1.68 16.67 -0.36 16.34 1 16 C0.67 10.72 0.34 5.44 0 0 Z " fill="#F7BFBF" transform="translate(250,349)"/>
<path d="M0 0 C2.31 0 4.62 0 7 0 C7 0.66 7 1.32 7 2 C5.68 2 4.36 2 3 2 C3 3.32 3 4.64 3 6 C3.66 6.33 4.32 6.66 5 7 C4.34 7 3.68 7 3 7 C3 8.32 3 9.64 3 11 C3.99 10.67 4.98 10.34 6 10 C6.33 9.01 6.66 8.02 7 7 C7.99 7.33 8.98 7.66 10 8 C9.125 11.875 9.125 11.875 8 13 C5.32941149 13.14115161 2.67567762 13.04247107 0 13 C0 8.71 0 4.42 0 0 Z " fill="#3B3837" transform="translate(181,407)"/>
<path d="M0 0 C3 1 3 1 4 3 C4.23828125 5.05859375 4.23828125 5.05859375 4.3125 7.4375 C4.34988281 8.21996094 4.38726562 9.00242187 4.42578125 9.80859375 C4 12 4 12 0 15 C0 10.05 0 5.1 0 0 Z " fill="#F6B8B9" transform="translate(252,370)"/>
<path d="M0 0 C0.99 0 1.98 0 3 0 C3 3.63 3 7.26 3 11 C4.65 11 6.3 11 8 11 C8 11.66 8 12.32 8 13 C5.36 13 2.72 13 0 13 C0 8.71 0 4.42 0 0 Z " fill="#373433" transform="translate(193,407)"/>
<path d="M0 0 C2.475 0.495 2.475 0.495 5 1 C5.33 1.99 5.66 2.98 6 4 C5.01 4.495 5.01 4.495 4 5 C3.53476937 6.89533342 3.53476937 6.89533342 3.375 9.0625 C3.25125 10.361875 3.1275 11.66125 3 13 C2.01 13 1.02 13 0 13 C0 8.71 0 4.42 0 0 Z " fill="#4E4949" transform="translate(333,407)"/>
<path d="M0 0 C3.69230769 0.69230769 3.69230769 0.69230769 5 2 C4.71269945 4.33944736 4.38063221 6.6739143 4 9 C2.35 8.67 0.7 8.34 -1 8 C-1.04241723 5.66705225 -1.04092937 3.33297433 -1 1 C-0.67 0.67 -0.34 0.34 0 0 Z " fill="#EBB7B7" transform="translate(207,409)"/>
<path d="M0 0 C3.69230769 0.69230769 3.69230769 0.69230769 5 2 C4.71269945 4.33944736 4.38063221 6.6739143 4 9 C2.35 8.67 0.7 8.34 -1 8 C-1.04241723 5.66705225 -1.04092937 3.33297433 -1 1 C-0.67 0.67 -0.34 0.34 0 0 Z " fill="#EAD8D8" transform="translate(323,409)"/>
<path d="M0 0 C3.69230769 0.69230769 3.69230769 0.69230769 5 2 C4.71269945 4.33944736 4.38063221 6.6739143 4 9 C2.35 8.67 0.7 8.34 -1 8 C-1.04241723 5.66705225 -1.04092937 3.33297433 -1 1 C-0.67 0.67 -0.34 0.34 0 0 Z " fill="#ECECEC" transform="translate(266,409)"/>
<path d="M0 0 C3.69230769 0.69230769 3.69230769 0.69230769 5 2 C4.71269945 4.33944736 4.38063221 6.6739143 4 9 C2.35 8.67 0.7 8.34 -1 8 C-1.04241723 5.66705225 -1.04092937 3.33297433 -1 1 C-0.67 0.67 -0.34 0.34 0 0 Z " fill="#EAD2CD" transform="translate(221,409)"/>
<path d="M0 0 C3.3 0 6.6 0 10 0 C10 0.99 10 1.98 10 3 C8.68 3 7.36 3 6 3 C6 6.3 6 9.6 6 13 C5.34 13 4.68 13 4 13 C4 9.37 4 5.74 4 2 C2.68 2 1.36 2 0 2 C0 1.34 0 0.68 0 0 Z " fill="#3A3A3A" transform="translate(302,407)"/>
<path d="M0 0 C0.36265043 4.23092172 -0.39749195 6.62637846 -3 10 C-3.99 10 -4.98 10 -6 10 C-6 7.03 -6 4.06 -6 1 C-2 0 -2 0 0 0 Z " fill="#8C8582" transform="translate(190,408)"/>
<path d="M0 0 C1.98 0 3.96 0 6 0 C6.38218767 1.65614657 6.71395102 3.32457024 7 5 C6 6 6 6 2.9375 6.0625 C1.4834375 6.0315625 1.4834375 6.0315625 0 6 C0 4.02 0 2.04 0 0 Z " fill="#FAEDEE" transform="translate(340,379)"/>
<path d="M0 0 C2.475 0.495 2.475 0.495 5 1 C5 2.98 5 4.96 5 7 C3.35 7.33 1.7 7.66 0 8 C0 5.36 0 2.72 0 0 Z " fill="#E2BBB9" transform="translate(234,410)"/>
<path d="M0 0 C2.475 0.495 2.475 0.495 5 1 C5.125 3.375 5.125 3.375 5 6 C4.34 6.66 3.68 7.32 3 8 C2.01 8 1.02 8 0 8 C0 5.36 0 2.72 0 0 Z " fill="#F4F4F4" transform="translate(252,410)"/>
<path d="M0 0 C1.65 0 3.3 0 5 0 C5.38218767 1.65614657 5.71395102 3.32457024 6 5 C5 6 5 6 2.4375 6.0625 C1.2309375 6.0315625 1.2309375 6.0315625 0 6 C0 4.02 0 2.04 0 0 Z " fill="#F8DCD7" transform="translate(157,370)"/>
<path d="M0 0 C1.98 0 3.96 0 6 0 C6.5625 1.9375 6.5625 1.9375 7 4 C6 5 6 5 2.9375 5.0625 C1.4834375 5.0315625 1.4834375 5.0315625 0 5 C0 3.35 0 1.7 0 0 Z " fill="#F9EAEB" transform="translate(340,370)"/>
<path d="M0 0 C1.81155838 2.71733757 3.01896005 4.90595092 4 8 C3.55078125 10.16015625 3.55078125 10.16015625 3 12 C2.13050683 10.92892883 1.27985795 9.84254056 0.4375 8.75 C-0.03816406 8.14671875 -0.51382813 7.5434375 -1.00390625 6.921875 C-2 5 -2 5 -1.71484375 2.828125 C-1 1 -1 1 0 0 Z " fill="#F6B9BA" transform="translate(167,376)"/>
<path d="M0 0 C0.66 0.33 1.32 0.66 2 1 C0.85821872 2.66944521 -0.28852905 4.3354948 -1.4375 6 C-2.07558594 6.928125 -2.71367187 7.85625 -3.37109375 8.8125 C-3.90863281 9.534375 -4.44617188 10.25625 -5 11 C-5.33 11 -5.66 11 -6 11 C-6 9.02 -6 7.04 -6 5 C-5.01 4.67 -4.02 4.34 -3 4 C-2.67 3.01 -2.34 2.02 -2 1 C-1.34 0.67 -0.68 0.34 0 0 Z " fill="#FCE2DA" transform="translate(209,135)"/>
<path d="M0 0 C2.76223278 2.76223278 2.57856291 5.20706617 3 9 C1.35 9 -0.3 9 -2 9 C-1.125 2.25 -1.125 2.25 0 0 Z " fill="#F3B1B3" transform="translate(365,370)"/>
<path d="M0 0 C1 2 2 4 3 6 C3.99 6.33 4.98 6.66 6 7 C6 7.66 6 8.32 6 9 C3.03 8.505 3.03 8.505 0 8 C-0.38063221 5.6739143 -0.71269945 3.33944736 -1 1 C-0.67 0.67 -0.34 0.34 0 0 Z " fill="#282525" transform="translate(218,411)"/>
<path d="M0 0 C0.33 0 0.66 0 1 0 C1.12375 1.134375 1.2475 2.26875 1.375 3.4375 C1.684375 5.2009375 1.684375 5.2009375 2 7 C2.66 7.33 3.32 7.66 4 8 C1.36 8 -1.28 8 -4 8 C-2.68 5.36 -1.36 2.72 0 0 Z " fill="#E8BEBD" transform="translate(216,412)"/>
<path d="M0 0 C0.33 0 0.66 0 1 0 C1.268125 0.969375 1.53625 1.93875 1.8125 2.9375 C2.204375 3.948125 2.59625 4.95875 3 6 C3.99 6.33 4.98 6.66 6 7 C6 7.66 6 8.32 6 9 C3.03 8.505 3.03 8.505 0 8 C-0.38063221 5.6739143 -0.71269945 3.33944736 -1 1 C-0.67 0.67 -0.34 0.34 0 0 Z " fill="#272727" transform="translate(320,411)"/>
<path d="M0 0 C0.33 0 0.66 0 1 0 C1.268125 0.969375 1.53625 1.93875 1.8125 2.9375 C2.204375 3.948125 2.59625 4.95875 3 6 C3.99 6.33 4.98 6.66 6 7 C6 7.66 6 8.32 6 9 C3.03 8.505 3.03 8.505 0 8 C-0.38063221 5.6739143 -0.71269945 3.33944736 -1 1 C-0.67 0.67 -0.34 0.34 0 0 Z " fill="#272727" transform="translate(263,411)"/>
<path d="M0 0 C0.33 0 0.66 0 1 0 C1.268125 0.969375 1.53625 1.93875 1.8125 2.9375 C2.204375 3.948125 2.59625 4.95875 3 6 C3.99 6.33 4.98 6.66 6 7 C6 7.66 6 8.32 6 9 C3.03 8.505 3.03 8.505 0 8 C-0.38063221 5.6739143 -0.71269945 3.33944736 -1 1 C-0.67 0.67 -0.34 0.34 0 0 Z " fill="#262525" transform="translate(204,411)"/>
<path d="M0 0 C0.66 0 1.32 0 2 0 C2.33 2.31 2.66 4.62 3 7 C2.34 7 1.68 7 1 7 C1 8.65 1 10.3 1 12 C0.67 12 0.34 12 0 12 C0 8.04 0 4.08 0 0 Z " fill="#ED454C" transform="translate(293,214)"/>
<path d="M0 0 C1.98 0.495 1.98 0.495 4 1 C4.33 2.32 4.66 3.64 5 5 C2.03 4.505 2.03 4.505 -1 4 C-0.67 2.68 -0.34 1.36 0 0 Z " fill="#E7DDD6" transform="translate(207,409)"/>
<path d="M0 0 C1.2065625 0.0309375 1.2065625 0.0309375 2.4375 0.0625 C1.1175 0.3925 -0.2025 0.7225 -1.5625 1.0625 C-1.8925 3.7025 -2.2225 6.3425 -2.5625 9.0625 C-3.5525 7.7425 -4.5425 6.4225 -5.5625 5.0625 C-3.15007962 0.07683121 -3.15007962 0.07683121 0 0 Z " fill="#474343" transform="translate(324.5625,406.9375)"/>
<path d="M0 0 C1.2065625 0.0309375 1.2065625 0.0309375 2.4375 0.0625 C1.1175 0.3925 -0.2025 0.7225 -1.5625 1.0625 C-1.8925 3.7025 -2.2225 6.3425 -2.5625 9.0625 C-3.5525 7.7425 -4.5425 6.4225 -5.5625 5.0625 C-3.15007962 0.07683121 -3.15007962 0.07683121 0 0 Z " fill="#474747" transform="translate(267.5625,406.9375)"/>
<path d="M0 0 C0 0.66 0 1.32 0 2 C-0.66 2 -1.32 2 -2 2 C-2.33 2.99 -2.66 3.98 -3 5 C-3.12375 4.071875 -3.12375 4.071875 -3.25 3.125 C-3.81258459 0.81562433 -3.81258459 0.81562433 -6.0625 -0.25 C-6.701875 -0.4975 -7.34125 -0.745 -8 -1 C-4.59745511 -2.2151946 -3.06748874 -1.86240388 0 0 Z " fill="#4C4645" transform="translate(242,410)"/>
<path d="M0 0 C1.2065625 0.0309375 1.2065625 0.0309375 2.4375 0.0625 C1.1175 0.3925 -0.2025 0.7225 -1.5625 1.0625 C-1.8925 3.7025 -2.2225 6.3425 -2.5625 9.0625 C-3.5525 7.7425 -4.5425 6.4225 -5.5625 5.0625 C-3.15007962 0.07683121 -3.15007962 0.07683121 0 0 Z " fill="#474342" transform="translate(208.5625,406.9375)"/>
<path d="M0 0 C1.89213369 2.38573379 3.02391783 4.07175348 4 7 C3.67 7.66 3.34 8.32 3 9 C2.34 9 1.68 9 1 9 C0.67 6.03 0.34 3.06 0 0 Z " fill="#959294" transform="translate(309,166)"/>
<path d="M0 0 C0.66 0 1.32 0 2 0 C1.75 2.875 1.75 2.875 1 6 C-1.0625 7.375 -1.0625 7.375 -3 8 C-2.690625 7.236875 -2.38125 6.47375 -2.0625 5.6875 C-1.32106407 3.81210323 -0.63771783 1.91315348 0 0 Z " fill="#282727" transform="translate(240,412)"/>
<path d="M0 0 C1.2065625 0.0309375 1.2065625 0.0309375 2.4375 0.0625 C1.1175 0.3925 -0.2025 0.7225 -1.5625 1.0625 C-1.8925 3.3725 -2.2225 5.6825 -2.5625 8.0625 C-3.5525 7.0725 -4.5425 6.0825 -5.5625 5.0625 C-3.15007962 0.07683121 -3.15007962 0.07683121 0 0 Z " fill="#474543" transform="translate(222.5625,406.9375)"/>
<path d="M0 0 C0.99 0 1.98 0 3 0 C3 1.65 3 3.3 3 5 C2.34 5 1.68 5 1 5 C0.67 5.66 0.34 6.32 0 7 C-1.33332095 4.3333581 -0.67102033 2.83319697 0 0 Z " fill="#E9BEBD" transform="translate(190,408)"/>
<path d="M0 0 C1.98 0 3.96 0 6 0 C6 0.99 6 1.98 6 3 C4.02 3 2.04 3 0 3 C0 2.01 0 1.02 0 0 Z " fill="#794342" transform="translate(162,336)"/>
<path d="M0 0 C3.63 0 7.26 0 11 0 C9.68 0.33 8.36 0.66 7 1 C7 1.66 7 2.32 7 3 C4.69 2.34 2.38 1.68 0 1 C0 0.67 0 0.34 0 0 Z " fill="#AFA9A6" transform="translate(223,313)"/>
<path d="M0 0 C0.33 0 0.66 0 1 0 C0.75 3.375 0.75 3.375 0 7 C-2.0625 8.4375 -2.0625 8.4375 -4 9 C-3.625 7.0625 -3.625 7.0625 -3 5 C-2.34 4.67 -1.68 4.34 -1 4 C-0.34786708 1.97536745 -0.34786708 1.97536745 0 0 Z " fill="#454545" transform="translate(259,411)"/>
<path d="M0 0 C0.99 0.33 1.98 0.66 3 1 C2.6875 2.9375 2.6875 2.9375 2 5 C1.01 5.33 0.02 5.66 -1 6 C-0.67 4.02 -0.34 2.04 0 0 Z " fill="#3A3938" transform="translate(188,414)"/>
</svg>
